<?xml version="1.0" encoding="UTF-8" standalone="no"?>
<!-- Created with Inkscape (http://www.inkscape.org/) -->

<svg
   width="100"
   height="100"
   viewBox="0 0 26.458333 26.458333"
   version="1.1"
   id="svg1"
   inkscape:version="1.3.2 (091e20e, 2023-11-25)"
   sodipodi:docname="Caffe Latte.svg"
   xml:space="preserve"
   xmlns:inkscape="http://www.inkscape.org/namespaces/inkscape"
   xmlns:sodipodi="http://sodipodi.sourceforge.net/DTD/sodipodi-0.dtd"
   xmlns="http://www.w3.org/2000/svg"
   xmlns:svg="http://www.w3.org/2000/svg"><sodipodi:namedview
     id="namedview1"
     pagecolor="#ffffff"
     bordercolor="#000000"
     borderopacity="0.25"
     inkscape:showpageshadow="2"
     inkscape:pageopacity="0.0"
     inkscape:pagecheckerboard="0"
     inkscape:deskcolor="#d1d1d1"
     inkscape:document-units="mm"
     inkscape:zoom="6.3166334"
     inkscape:cx="49.630868"
     inkscape:cy="41.002854"
     inkscape:window-width="1392"
     inkscape:window-height="1027"
     inkscape:window-x="276"
     inkscape:window-y="25"
     inkscape:window-maximized="0"
     inkscape:current-layer="layer1" /><defs
     id="defs1" /><g
     inkscape:label="Layer 1"
     inkscape:groupmode="layer"
     id="layer1"><path
       style="fill:#fff6e9;stroke:#fff6e9;stroke-width:0.158561;fill-opacity:1;stroke-opacity:1"
       d="M 26.619826,81.593594 C 26.433623,80.656699 19.36069,19.452179 19.430549,19.38232 c 0.09298,-0.09298 65.978872,-0.302316 65.978872,-0.209634 0,0.483828 -6.966973,62.570407 -7.028127,62.631561 -0.04655,0.04655 -11.691416,0.121381 -25.877481,0.166293 L 26.71097,82.0522 Z"
       id="path2"
       transform="scale(0.26458333)" /><path
       style="fill:#622718;fill-opacity:1;stroke:#000000;stroke-width:0.0477523"
       d="M 7.235879,24.127057 C 7.1328969,22.870818 7.0526986,21.837119 7.0576456,21.829944 c 0.030011,-0.0435 13.7841134,-0.08224 13.7833734,-0.03882 -0.0024,0.1487 -0.35827,4.515086 -0.368869,4.527505 -0.0069,0.0081 -2.945705,0.03213 -6.530762,0.05355 l -6.5182814,0.03893 z"
       id="path17"
       inkscape:label="path17" /><path
       style="fill:none;fill-opacity:0.689243;stroke:#000000;stroke-width:0.265;stroke-opacity:1;stroke-dasharray:none"
       d="m 22.864983,4.8983583 -19.3491998,0.06182 v -2.53456 l 20.8637598,0.06182 0.0309,2.410923 h -1.63819 L 20.392243,26.349393 7.4412602,26.380303 4.9376092,4.8983623"
       id="path1" /><path
       style="fill:none;fill-opacity:0.689243;stroke:#000000;stroke-width:0.265213"
       d="M 7.0017028,21.858656 20.857504,21.8196"
       id="path3" /><text
       xml:space="preserve"
       style="font-style:normal;font-variant:normal;font-weight:normal;font-stretch:normal;font-size:2.46944px;font-family:sans-serif;-inkscape-font-specification:'sans-serif, Normal';font-variant-ligatures:normal;font-variant-caps:normal;font-variant-numeric:normal;font-variant-east-asian:normal;fill:#c8b3ad;fill-opacity:1;stroke:#ffffff;stroke-width:0.264583;stroke-opacity:1"
       x="8.4130917"
       y="24.830341"
       id="text19"><tspan
         sodipodi:role="line"
         id="tspan19"
         style="font-style:normal;font-variant:normal;font-weight:normal;font-stretch:normal;font-size:2.11667px;font-family:Sans;-inkscape-font-specification:'Sans, Normal';font-variant-ligatures:normal;font-variant-caps:normal;font-variant-numeric:normal;font-variant-east-asian:normal;fill:#c8b3ad;stroke:#ffffff;stroke-width:0.264583;stroke-opacity:1;fill-opacity:1"
         x="8.4130917"
         y="24.830341">ESPRESSO</tspan></text><path
       style="fill:none;fill-opacity:1;stroke:#000000;stroke-width:0.264583;stroke-opacity:1"
       d="M 4.9956428,2.3337309 5.5061463,0.32818091"
       id="path19" /><text
       xml:space="preserve"
       style="font-style:normal;font-variant:normal;font-weight:normal;font-stretch:normal;font-size:2.46944px;font-family:sans-serif;-inkscape-font-specification:'sans-serif, Normal';font-variant-ligatures:normal;font-variant-caps:normal;font-variant-numeric:normal;font-variant-east-asian:normal;fill:#000000;fill-opacity:1;stroke:#060000;stroke-width:0.264583;stroke-opacity:1"
       x="14.161058"
       y="9.4749889"
       id="text19-4"><tspan
         sodipodi:role="line"
         style="font-style:normal;font-variant:normal;font-weight:normal;font-stretch:normal;font-size:2.11667px;font-family:Sans;-inkscape-font-specification:'Sans, Normal';font-variant-ligatures:normal;font-variant-caps:normal;font-variant-numeric:normal;font-variant-east-asian:normal;text-align:center;text-anchor:middle;fill:#000000;stroke:#060000;stroke-width:0.264583;stroke-opacity:1"
         x="14.161058"
         y="9.4749889"
         id="tspan1">LET SKUMMET </tspan><tspan
         sodipodi:role="line"
         style="font-style:normal;font-variant:normal;font-weight:normal;font-stretch:normal;font-size:2.11667px;font-family:Sans;-inkscape-font-specification:'Sans, Normal';font-variant-ligatures:normal;font-variant-caps:normal;font-variant-numeric:normal;font-variant-east-asian:normal;text-align:center;text-anchor:middle;fill:#000000;stroke:#060000;stroke-width:0.264583;stroke-opacity:1"
         x="14.161058"
         y="12.561789"
         id="tspan6">MÆLK</tspan></text><path
       style="fill:none;fill-opacity:1;stroke:#000000;stroke-width:0.264583;stroke-opacity:1"
       d="M 23.446703,2.40666 22.790341,0.32818091 H 5.3967527"
       id="path20" /><path
       style="fill:#ffffff;stroke:#ffffff;stroke-width:0.158561"
       d="M 13.852316,13.981278 V 9.7628938 l 38.814978,0.1074965 c 21.348239,0.059123 38.83134,0.1243573 38.851338,0.1449647 0.02,0.02061 0.0606,1.792185 0.09024,3.936839 l 0.05388,3.899371 -14.723033,0.09454 c -8.097668,0.052 -25.605016,0.130319 -38.905218,0.174048 l -24.182185,0.07951 z"
       id="path4"
       transform="scale(0.26458333)" /><path
       style="fill:#ffffff;stroke:#ffffff;stroke-width:0.158561"
       d="M 50.079386,8.7136977 C 33.390626,8.6665715 19.697485,8.5892992 19.650186,8.5419812 19.602886,8.4946633 19.95259,6.962993 20.427306,5.1382694 20.902022,3.3135458 21.291002,1.8027799 21.291707,1.781012 21.292412,1.7592441 35.778353,1.741434 53.482687,1.741434 h 32.189701 l 0.765794,2.4142607 c 0.421187,1.3278434 0.926429,2.9307542 1.122758,3.562024 L 87.917903,8.865482 84.170245,8.832432 C 82.109033,8.8142543 66.768147,8.7608239 50.079386,8.7136977 Z"
       id="path5"
       transform="scale(0.26458333)" /></g></svg>
