<?xml version="1.0" encoding="UTF-8" standalone="no"?>
<!-- Created with Inkscape (http://www.inkscape.org/) -->

<svg
   width="100"
   height="100"
   viewBox="0 0 26.458333 26.458333"
   version="1.1"
   id="svg1"
   inkscape:version="1.3.2 (091e20e, 2023-11-25)"
   sodipodi:docname="Caffe Latte.svg"
   xml:space="preserve"
   xmlns:inkscape="http://www.inkscape.org/namespaces/inkscape"
   xmlns:sodipodi="http://sodipodi.sourceforge.net/DTD/sodipodi-0.dtd"
   xmlns="http://www.w3.org/2000/svg"
   xmlns:svg="http://www.w3.org/2000/svg"><sodipodi:namedview
     id="namedview1"
     pagecolor="#ffffff"
     bordercolor="#000000"
     borderopacity="0.25"
     inkscape:showpageshadow="2"
     inkscape:pageopacity="0.0"
     inkscape:pagecheckerboard="0"
     inkscape:deskcolor="#d1d1d1"
     inkscape:document-units="mm"
     inkscape:zoom="6.3166334"
     inkscape:cx="49.710024"
     inkscape:cy="41.002854"
     inkscape:window-width="1392"
     inkscape:window-height="1027"
     inkscape:window-x="276"
     inkscape:window-y="25"
     inkscape:window-maximized="0"
     inkscape:current-layer="layer1" /><defs
     id="defs1" /><g
     inkscape:label="Layer 1"
     inkscape:groupmode="layer"
     id="layer1"><path
       style="fill:#622718;fill-opacity:1;stroke:#000000;stroke-width:0.0477523"
       d="M 7.235879,24.127057 C 7.1328969,22.870818 7.0526986,21.837119 7.0576456,21.829944 c 0.030011,-0.0435 13.7841134,-0.08224 13.7833734,-0.03882 -0.0024,0.1487 -0.35827,4.515086 -0.368869,4.527505 -0.0069,0.0081 -2.945705,0.03213 -6.530762,0.05355 l -6.5182814,0.03893 z"
       id="path17"
       inkscape:label="path17" /><path
       style="fill:#fff6e9;stroke:#fff6e9;stroke-width:0.158561"
       d="M 26.593383,81.728663 C 26.591698,81.576287 24.960501,67.488482 22.968501,50.422429 20.9765,33.356376 19.364084,19.374442 19.385354,19.351465 c 0.02127,-0.02298 14.867575,-0.08821 32.99179,-0.144954 28.359895,-0.08879 32.954123,-0.07194 32.960311,0.120933 0.004,0.123261 -1.540525,14.229165 -3.432178,31.346455 l -3.43937,31.122344 -8.783924,0.104733 c -4.831158,0.0576 -16.501787,0.104733 -25.93473,0.104733 -16.227393,0 -17.150972,-0.01492 -17.15387,-0.277046 z m 16.795812,-34.907836 0.01166,-1.306075 0.253454,0.658915 c 0.206891,0.53786 0.34172,0.671871 0.733888,0.729429 0.746043,0.109495 1.221513,-0.08828 1.448067,-0.602334 0.195286,-0.443108 0.207587,-0.40513 0.219725,0.678377 l 0.01286,1.147764 h 1.675898 1.675897 l 0.334425,-0.791561 c 0.30525,-0.722507 0.380022,-0.791561 0.857098,-0.791561 0.521665,0 0.522672,0.0015 0.522672,0.791561 v 0.791561 h 2.453839 2.453839 v -0.949874 -0.949873 h -1.42481 -1.42481 V 45.75222 45.277283 h 1.345654 1.345653 v -0.870717 -0.870717 h -1.345653 c -1.240112,0 -1.345654,-0.02483 -1.345654,-0.316624 0,-0.29317 0.105542,-0.316624 1.42481,-0.316624 h 1.42481 v -0.953445 -0.953445 l -2.879278,0.04315 -2.879277,0.04315 -1.118105,2.689929 -1.118106,2.68993 -0.04335,-2.736656 -0.04335,-2.736654 -1.06099,0.04673 -1.060989,0.04673 -0.483352,1.29745 c -0.464558,1.246997 -0.711686,1.717377 -0.711686,1.354611 0,-0.09414 -0.219958,-0.747181 -0.488796,-1.451194 L 43.666445,41.002863 H 42.572117 41.47779 v 3.562024 3.562025 h 0.949873 0.949873 z m 19.302428,0.321198 v -0.984877 l 0.993711,0.984877 0.99371,0.984878 h 1.222661 c 0.672462,0 1.222659,-0.05232 1.222659,-0.116257 0,-0.06394 -0.788613,-0.907115 -1.752473,-1.873716 l -1.752473,-1.757459 1.673317,-1.549523 c 0.920324,-0.852237 1.673317,-1.611976 1.673317,-1.688308 0,-0.07633 -0.546587,-0.138786 -1.214638,-0.138786 H 64.536777 L 63.6142,41.805287 62.691623,42.60772 v -0.802433 -0.802433 h -1.029029 -1.029029 v 2.612151 2.612151 H 59.367067 58.10057 v -2.612151 -2.612151 h -0.949873 -0.949873 v 3.562024 3.562025 h 3.245399 3.2454 z M 44.760293,36.228697 c 1.360698,-0.415729 1.755139,-2.512196 0.675743,-3.591592 -0.326546,-0.326546 -0.790048,-0.54274 -1.577105,-0.735618 -1.176106,-0.28822 -1.348305,-0.455999 -0.748504,-0.729287 0.344113,-0.156789 1.152523,0.03535 2.364747,0.56205 0.247902,0.107711 0.277046,0.01132 0.277046,-0.91625 0,-0.570143 -0.05424,-1.070143 -0.120523,-1.111112 -0.06629,-0.04097 -0.54768,-0.162715 -1.06976,-0.270549 -2.035049,-0.420332 -3.505502,0.297479 -3.67413,1.793553 -0.155261,1.377466 0.437124,2.080066 2.091844,2.481042 0.982398,0.238057 1.262415,0.443289 1.013703,0.74297 -0.280866,0.338422 -1.277978,0.254888 -2.13253,-0.178655 -0.428347,-0.217314 -0.832244,-0.395416 -0.897548,-0.39578 -0.0653,-3.65e-4 -0.118734,0.464164 -0.118734,1.032285 0,0.980202 0.02223,1.041607 0.435359,1.202519 1.098153,0.427724 2.32313,0.467999 3.480392,0.114424 z m 10.711578,-0.112696 c 0.252113,-0.142061 0.608316,-0.459172 0.79156,-0.704688 0.303569,-0.406731 0.337596,-0.691591 0.382956,-3.205822 l 0.04978,-2.759426 H 55.736092 54.776014 V 31.752 c 0,1.286791 -0.07243,2.441271 -0.163882,2.612151 -0.11312,0.211367 -0.332059,0.306216 -0.706835,0.306216 -0.374776,0 -0.593715,-0.09485 -0.706835,-0.306216 -0.09145,-0.17088 -0.163882,-1.32536 -0.163882,-2.612151 v -2.305935 h -1.617721 -1.617722 l -0.836117,0.825731 -0.836117,0.825731 v -0.825731 -0.825731 h -0.949874 -0.949873 v 3.482868 3.482868 h 0.949873 0.949874 v -0.984877 -0.984878 l 0.995976,0.987123 0.995977,0.987124 1.707137,-0.01682 c 0.938924,-0.0093 1.748406,0.02444 1.798846,0.07488 0.151763,0.151761 1.356577,-0.08199 1.847032,-0.358353 z M 33.562182,35.461928 v -0.949873 h -1.503966 -1.503965 v -0.474936 -0.474937 h 1.345653 1.345654 v -0.870717 -0.870717 h -1.345654 c -1.240112,0 -1.345653,-0.02483 -1.345653,-0.316624 0,-0.300989 0.105541,-0.316625 2.137214,-0.316625 h 2.137214 v 2.612151 2.612151 h 1.02903 1.029029 V 33.79965 31.187499 h 1.029029 1.029029 V 30.316782 29.446065 H 33.79965 28.654504 v 2.532995 2.532995 H 27.388007 26.12151 V 31.97906 29.446065 h -1.02903 -1.029029 v 3.482868 3.482868 h 4.749366 4.749365 z m 25.338558,-0.356202 0.0086,-1.306076 0.270486,0.705752 c 0.287281,0.749569 0.646558,0.95045 1.480879,0.827999 0.314977,-0.04623 0.489938,-0.214154 0.666724,-0.639902 l 0.239683,-0.577224 0.0082,1.147763 0.0082,1.147763 h 0.949873 0.949873 v -3.482868 -3.482868 h -1.076912 -1.076911 l -0.296169,0.831139 c -0.162894,0.457127 -0.399759,1.080481 -0.526366,1.385232 l -0.230197,0.554093 -0.511779,-1.345654 -0.51178,-1.345654 -1.130343,-0.04651 -1.130342,-0.04651 v 3.489804 3.489803 h 0.949873 0.949873 z m 6.969625,0.07916 0.0125,-1.22692 0.234979,0.663278 c 0.187489,0.529222 0.320946,0.673207 0.66033,0.712405 0.962712,0.111192 1.243509,-0.02561 1.473375,-0.717804 l 0.218471,-0.657879 0.04624,1.22692 0.04624,1.226919 h 0.943213 0.943215 V 32.928933 29.446065 H 69.352665 68.25641 l -0.507883,1.345654 c -0.279335,0.740109 -0.528677,1.345653 -0.554092,1.345653 -0.02542,0 -0.274758,-0.605544 -0.554093,-1.345653 L 66.132459,29.446065 H 65.04529 63.95812 v 3.482868 3.482868 h 0.949874 0.949873 z m 9.929491,0.316624 -0.04748,-0.910295 -1.464388,-0.04552 -1.464387,-0.04552 V 34.03118 33.562184 h 1.345653 1.345654 V 32.691467 31.82075 h -1.345654 c -1.240111,0 -1.345653,-0.02483 -1.345653,-0.316624 0,-0.300989 0.105542,-0.316625 2.137214,-0.316625 h 2.137214 v 2.612151 2.612151 h 1.02903 1.029029 V 33.79965 31.187499 h 1.029029 1.029029 v -0.870717 -0.870717 h -5.224302 -5.224302 v 3.482868 3.482868 h 2.540895 2.540896 z"
       id="path6"
       transform="scale(0.26458333)" /><path
       style="fill:none;fill-opacity:0.689243;stroke:#000000;stroke-width:0.265;stroke-opacity:1;stroke-dasharray:none"
       d="m 22.864983,4.8983583 -19.3491998,0.06182 v -2.53456 l 20.8637598,0.06182 0.0309,2.410923 h -1.63819 L 20.392243,26.349393 7.4412602,26.380303 4.9376092,4.8983623"
       id="path1" /><path
       style="fill:none;fill-opacity:0.689243;stroke:#000000;stroke-width:0.265213"
       d="M 7.0017028,21.858656 20.857504,21.8196"
       id="path3" /><text
       xml:space="preserve"
       style="font-style:normal;font-variant:normal;font-weight:normal;font-stretch:normal;font-size:2.46944px;font-family:sans-serif;-inkscape-font-specification:'sans-serif, Normal';font-variant-ligatures:normal;font-variant-caps:normal;font-variant-numeric:normal;font-variant-east-asian:normal;fill:#c8b3ad;fill-opacity:1;stroke:#ffffff;stroke-width:0.264583;stroke-opacity:1"
       x="8.4130917"
       y="24.830341"
       id="text19"><tspan
         sodipodi:role="line"
         id="tspan19"
         style="font-style:normal;font-variant:normal;font-weight:normal;font-stretch:normal;font-size:2.11667px;font-family:Sans;-inkscape-font-specification:'Sans, Normal';font-variant-ligatures:normal;font-variant-caps:normal;font-variant-numeric:normal;font-variant-east-asian:normal;fill:#c8b3ad;stroke:#ffffff;stroke-width:0.264583;stroke-opacity:1;fill-opacity:1"
         x="8.4130917"
         y="24.830341">ESPRESSO</tspan></text><path
       style="fill:none;fill-opacity:1;stroke:#000000;stroke-width:0.264583;stroke-opacity:1"
       d="M 4.9956428,2.3337309 5.5061463,0.32818091"
       id="path19" /><text
       xml:space="preserve"
       style="font-style:normal;font-variant:normal;font-weight:normal;font-stretch:normal;font-size:2.46944px;font-family:sans-serif;-inkscape-font-specification:'sans-serif, Normal';font-variant-ligatures:normal;font-variant-caps:normal;font-variant-numeric:normal;font-variant-east-asian:normal;fill:#000000;fill-opacity:1;stroke:#060000;stroke-width:0.264583;stroke-opacity:1"
       x="14.161057"
       y="9.4749889"
       id="text19-4"><tspan
         sodipodi:role="line"
         style="font-style:normal;font-variant:normal;font-weight:normal;font-stretch:normal;font-size:2.11667px;font-family:Sans;-inkscape-font-specification:'Sans, Normal';font-variant-ligatures:normal;font-variant-caps:normal;font-variant-numeric:normal;font-variant-east-asian:normal;text-align:center;text-anchor:middle;fill:#000000;stroke:#060000;stroke-width:0.264583;stroke-opacity:1"
         x="14.161057"
         y="9.4749889"
         id="tspan1">LET SKUMMET </tspan><tspan
         sodipodi:role="line"
         style="font-style:normal;font-variant:normal;font-weight:normal;font-stretch:normal;font-size:2.11667px;font-family:Sans;-inkscape-font-specification:'Sans, Normal';font-variant-ligatures:normal;font-variant-caps:normal;font-variant-numeric:normal;font-variant-east-asian:normal;text-align:center;text-anchor:middle;fill:#000000;stroke:#060000;stroke-width:0.264583;stroke-opacity:1"
         x="14.161057"
         y="12.561789"
         id="tspan6">MÆLK</tspan></text><path
       style="fill:none;fill-opacity:1;stroke:#000000;stroke-width:0.264583;stroke-opacity:1"
       d="M 23.446703,2.40666 22.790341,0.32818091 H 5.3967527"
       id="path20" /></g></svg>
