<?xml version="1.0" encoding="UTF-8" standalone="no"?>
<!-- Created with Inkscape (http://www.inkscape.org/) -->

<svg
   width="100"
   height="100"
   viewBox="0 0 26.458333 26.458333"
   version="1.1"
   id="svg1"
   inkscape:version="1.3.2 (091e20e, 2023-11-25)"
   sodipodi:docname="Cappuccino.svg"
   xml:space="preserve"
   xmlns:inkscape="http://www.inkscape.org/namespaces/inkscape"
   xmlns:sodipodi="http://sodipodi.sourceforge.net/DTD/sodipodi-0.dtd"
   xmlns="http://www.w3.org/2000/svg"
   xmlns:svg="http://www.w3.org/2000/svg"><sodipodi:namedview
     id="namedview1"
     pagecolor="#ffffff"
     bordercolor="#000000"
     borderopacity="0.25"
     inkscape:showpageshadow="2"
     inkscape:pageopacity="0.0"
     inkscape:pagecheckerboard="0"
     inkscape:deskcolor="#d1d1d1"
     inkscape:document-units="mm"
     inkscape:zoom="6.3166334"
     inkscape:cx="49.710025"
     inkscape:cy="41.002855"
     inkscape:window-width="1392"
     inkscape:window-height="1027"
     inkscape:window-x="165"
     inkscape:window-y="25"
     inkscape:window-maximized="0"
     inkscape:current-layer="layer1" /><defs
     id="defs1" /><g
     inkscape:label="Layer 1"
     inkscape:groupmode="layer"
     id="layer1"><path
       style="fill:#622718;fill-opacity:1;stroke:#000000;stroke-width:0.0477523"
       d="M 7.235879,24.127057 C 7.1328969,22.870818 7.0526986,21.837119 7.0576456,21.829944 c 0.030011,-0.0435 13.7841134,-0.08224 13.7833734,-0.03882 -0.0024,0.1487 -0.35827,4.515086 -0.368869,4.527505 -0.0069,0.0081 -2.945705,0.03213 -6.530762,0.05355 l -6.5182814,0.03893 z"
       id="path17"
       inkscape:label="path17" /><text
       xml:space="preserve"
       style="font-style:normal;font-variant:normal;font-weight:normal;font-stretch:normal;font-size:2.46944px;font-family:sans-serif;-inkscape-font-specification:'sans-serif, Normal';font-variant-ligatures:normal;font-variant-caps:normal;font-variant-numeric:normal;font-variant-east-asian:normal;fill:#000000;fill-opacity:1;stroke:#060000;stroke-width:0.264583;stroke-opacity:1"
       x="14.161057"
       y="9.4749889"
       id="text19-4"><tspan
         sodipodi:role="line"
         style="font-style:normal;font-variant:normal;font-weight:normal;font-stretch:normal;font-size:2.11667px;font-family:Sans;-inkscape-font-specification:'Sans, Normal';font-variant-ligatures:normal;font-variant-caps:normal;font-variant-numeric:normal;font-variant-east-asian:normal;text-align:center;text-anchor:middle;fill:#000000;stroke:#060000;stroke-width:0.264583;stroke-opacity:1"
         x="14.161057"
         y="9.4749889"
         id="tspan24">SKUMMET </tspan><tspan
         sodipodi:role="line"
         style="font-style:normal;font-variant:normal;font-weight:normal;font-stretch:normal;font-size:2.11667px;font-family:Sans;-inkscape-font-specification:'Sans, Normal';font-variant-ligatures:normal;font-variant-caps:normal;font-variant-numeric:normal;font-variant-east-asian:normal;text-align:center;text-anchor:middle;fill:#000000;stroke:#060000;stroke-width:0.264583;stroke-opacity:1"
         x="14.161057"
         y="12.561789"
         id="tspan25">MÆLK</tspan></text><path
       style="fill:#fff6e9;fill-opacity:1;stroke:#fff6e9;stroke-width:0.112052;stroke-dasharray:none;stroke-opacity:1"
       d="m 26.58812,81.669585 c -0.185035,-1.248654 -7.258079,-62.327544 -7.221727,-62.362827 0.02981,-0.02893 57.853324,-0.231875 66.067604,-0.231875 0.0091,0 -1.552861,14.121566 -3.471043,31.381258 L 78.475348,81.8374 69.919707,81.91686 c -4.705603,0.0437 -16.367174,0.09405 -25.914602,0.111877 l -17.35896,0.03242 z m 16.827708,-34.933326 0.0079,-1.258606 0.258679,0.671257 c 0.223947,0.581127 0.301752,0.676341 0.579466,0.709125 0.176432,0.02083 0.383716,0.08992 0.460631,0.153544 0.09752,0.08067 0.139845,0.07767 0.139845,-0.0099 0,-0.06907 0.163933,-0.125575 0.364295,-0.125575 0.340876,0 0.379839,-0.04136 0.606061,-0.643287 l 0.241767,-0.643288 0.0093,1.205583 0.0093,1.205582 1.701583,-0.03088 1.701583,-0.03088 0.27389,-0.699226 0.27389,-0.699226 h 0.597678 0.597679 v 0.727195 0.727195 h 2.405337 2.405337 V 47.155801 46.31673 h -1.45439 -1.454389 v -0.559381 -0.559381 h 1.342513 1.342514 V 44.358891 43.51982 H 54.483783 53.14127 v -0.335628 -0.335629 h 1.398451 1.398452 v -0.89693 -0.89693 l -2.817673,0.02989 -2.817674,0.02989 -1.12596,2.703798 -1.125961,2.703797 -0.02992,-2.731766 -0.02992,-2.731767 h -1.051088 -1.051088 l -0.286316,0.755164 c -0.157475,0.41534 -0.406371,1.077197 -0.553104,1.470793 l -0.266789,0.71563 -0.337252,-0.883444 c -0.185488,-0.485894 -0.431081,-1.147751 -0.54576,-1.470793 l -0.208507,-0.58735 h -1.09261 -1.092501 v 3.46816 3.468161 h 0.950947 0.950947 z m 19.234813,0.282023 v -0.976583 l 0.981129,0.976583 0.98113,0.976584 h 1.283051 1.283051 l -1.788707,-1.793473 -1.788707,-1.793473 0.785716,-0.751709 c 0.432144,-0.413441 1.199894,-1.147504 1.706111,-1.631252 0.506218,-0.483749 0.920395,-0.899089 0.920395,-0.922978 0,-0.02389 -0.574781,-0.04344 -1.277292,-0.04344 h -1.277293 l -0.904292,0.850693 -0.904292,0.850694 v -0.850694 -0.850693 h -0.950947 -0.950948 v 2.629089 2.62909 h -1.286575 -1.286576 v -2.62909 -2.629089 h -0.950947 -0.950947 v 3.46816 3.468161 h 3.18847 3.18847 z M 36.417675,36.163427 c 0.54289,-0.277073 0.775614,-0.524253 1.000628,-1.062788 0.363137,-0.869108 0.102625,-1.982932 -0.602571,-2.576316 -0.34472,-0.290063 -1.052833,-0.547004 -1.934358,-0.701891 -0.555855,-0.09767 -0.772934,-0.35229 -0.481822,-0.565156 0.351934,-0.257341 1.125764,-0.186313 1.960195,0.179921 0.420584,0.184595 0.794018,0.335628 0.829854,0.335628 0.03584,0 0.06515,-0.451148 0.06515,-1.002551 v -1.002551 l -0.58735,-0.177841 c -2.087459,-0.632051 -3.8548,-0.07332 -4.208262,1.330404 -0.356569,1.41606 0.398743,2.434077 2.041485,2.751536 0.68664,0.132693 1.187861,0.367664 1.187861,0.556866 0,0.271213 -0.38,0.452917 -0.947193,0.452917 -0.467232,0 -0.778934,-0.09215 -1.446398,-0.427593 l -0.850817,-0.427594 v 1.081137 1.081138 l 0.699226,0.198733 c 0.384574,0.109303 0.74957,0.217274 0.811102,0.239934 0.06153,0.02266 0.540698,0.02371 1.064813,0.0023 0.677075,-0.02763 1.081909,-0.104703 1.398452,-0.266255 z m 10.409292,0.05547 c 0.563629,-0.294021 1.050863,-0.87785 1.226671,-1.469858 0.122858,-0.413707 0.16498,-1.164495 0.16498,-2.94058 v -2.385032 h -0.950947 -0.950947 l -0.0016,2.32143 c -0.0019,2.633398 -0.05281,2.858659 -0.659671,2.917023 -0.607145,0.05839 -0.871201,-0.05814 -1.005643,-0.4438 -0.0735,-0.210848 -0.123056,-1.247303 -0.123056,-2.573824 V 29.423427 H 42.979092 41.43143 l -0.913613,0.848764 -0.913613,0.848764 V 30.27219 29.423426 H 38.653257 37.70231 v 3.46816 3.468161 h 0.950947 0.950947 V 35.383163 34.40658 l 0.986374,0.981803 0.986374,0.981804 1.53425,-0.02045 c 0.843837,-0.01125 1.570474,0.0168 1.614747,0.06233 0.138086,0.142008 1.741061,-0.0054 2.101067,-0.193162 z m 3.637058,-1.117756 0.0079,-1.258606 0.258679,0.671257 c 0.223947,0.581127 0.301752,0.676341 0.579466,0.709125 0.176432,0.02083 0.383716,0.08992 0.460631,0.153544 0.09666,0.07995 0.139845,0.07909 0.139845,-0.0028 0,-0.06517 0.163317,-0.134261 0.362926,-0.153543 0.328397,-0.03172 0.38428,-0.0936 0.58735,-0.650376 l 0.224423,-0.615319 0.03175,1.202668 0.03175,1.202669 h 0.947163 0.947162 v -3.472212 -3.472212 l -1.080588,0.03202 -1.080588,0.03202 -0.509037,1.362649 c -0.27997,0.749457 -0.541492,1.34259 -0.581159,1.318075 -0.03967,-0.02452 -0.293464,-0.650162 -0.563992,-1.390322 l -0.491868,-1.345747 -1.090792,-2.96e-4 -1.090792,-2.97e-4 v 3.46816 3.468161 h 0.950947 0.950947 z m 6.952621,0.05594 0.03175,-1.202668 0.224424,0.615319 c 0.203069,0.556775 0.258953,0.618653 0.587349,0.650376 0.19961,0.01928 0.362927,0.09228 0.362927,0.16222 0,0.09103 0.03815,0.08901 0.134251,-0.0071 0.07384,-0.07384 0.272511,-0.134252 0.441495,-0.134252 0.27481,0 0.33445,-0.07381 0.564974,-0.699225 l 0.257731,-0.699226 0.03163,1.258606 0.03163,1.258607 h 0.947284 0.947283 v -3.468161 -3.46816 l -1.090792,2.97e-4 -1.090793,2.96e-4 -0.491868,1.345747 c -0.270528,0.74016 -0.527873,1.367999 -0.571878,1.395196 -0.04401,0.0272 -0.307259,-0.565937 -0.585006,-1.318074 l -0.504995,-1.367524 -1.076743,-0.03202 -1.076741,-0.03202 v 3.472212 3.472212 h 0.947162 0.947162 z m 9.820917,0.30766 v -0.895009 h -1.45439 -1.45439 v -0.503443 -0.503443 h 1.403157 1.403159 l -0.03268,-0.86704 -0.03267,-0.86704 -1.370483,-0.03141 -1.370483,-0.03141 v -0.276247 -0.276247 h 2.181585 2.181585 v 2.573152 2.573151 h 0.950947 0.950947 v -2.573151 -2.573152 h 1.062823 1.062824 v -0.895009 -0.895009 h -5.146303 -5.146302 v 3.46816 3.468161 h 2.405337 2.405337 z"
       id="path25"
       transform="scale(0.26458333)" /><path
       style="fill:none;fill-opacity:0.689243;stroke:#000000;stroke-width:0.265;stroke-opacity:1;stroke-dasharray:none"
       d="m 22.864983,4.8983583 -19.3491998,0.06182 v -2.53456 l 20.8637598,0.06182 0.0309,2.410923 h -1.63819 L 20.392243,26.349393 7.4412602,26.380303 4.9376092,4.8983623"
       id="path1" /><path
       style="fill:none;fill-opacity:0.689243;stroke:#000000;stroke-width:0.265213"
       d="M 7.0017028,21.858656 20.857504,21.8196"
       id="path3" /><text
       xml:space="preserve"
       style="font-style:normal;font-variant:normal;font-weight:normal;font-stretch:normal;font-size:2.46944px;font-family:sans-serif;-inkscape-font-specification:'sans-serif, Normal';font-variant-ligatures:normal;font-variant-caps:normal;font-variant-numeric:normal;font-variant-east-asian:normal;fill:none;fill-opacity:1;stroke:#ffffff;stroke-width:0.264583;stroke-opacity:1"
       x="8.4130917"
       y="24.830341"
       id="text19"><tspan
         sodipodi:role="line"
         id="tspan19"
         style="font-style:normal;font-variant:normal;font-weight:normal;font-stretch:normal;font-size:2.11667px;font-family:Sans;-inkscape-font-specification:'Sans, Normal';font-variant-ligatures:normal;font-variant-caps:normal;font-variant-numeric:normal;font-variant-east-asian:normal;fill:none;stroke:#ffffff;stroke-width:0.264583;stroke-opacity:1"
         x="8.4130917"
         y="24.830341">ESPRESSO</tspan></text><path
       style="fill:none;fill-opacity:1;stroke:#000000;stroke-width:0.264583;stroke-opacity:1"
       d="M 4.9956428,2.3337309 5.5061463,0.32818091"
       id="path19" /><path
       style="fill:none;fill-opacity:1;stroke:#000000;stroke-width:0.264583;stroke-opacity:1"
       d="M 23.446703,2.40666 22.790341,0.32818091 H 5.3967527"
       id="path20" /></g></svg>
