<?xml version="1.0" encoding="UTF-8" standalone="no"?>
<!-- Created with Inkscape (http://www.inkscape.org/) -->

<svg
   width="100"
   height="100"
   viewBox="0 0 26.458333 26.458333"
   version="1.1"
   id="svg1"
   inkscape:version="1.3.2 (091e20e, 2023-11-25)"
   sodipodi:docname="Chai Latte.svg"
   xml:space="preserve"
   xmlns:inkscape="http://www.inkscape.org/namespaces/inkscape"
   xmlns:sodipodi="http://sodipodi.sourceforge.net/DTD/sodipodi-0.dtd"
   xmlns="http://www.w3.org/2000/svg"
   xmlns:svg="http://www.w3.org/2000/svg"><sodipodi:namedview
     id="namedview1"
     pagecolor="#ffffff"
     bordercolor="#000000"
     borderopacity="0.25"
     inkscape:showpageshadow="2"
     inkscape:pageopacity="0.0"
     inkscape:pagecheckerboard="0"
     inkscape:deskcolor="#d1d1d1"
     inkscape:document-units="mm"
     inkscape:zoom="6.3166334"
     inkscape:cx="54.85517"
     inkscape:cy="34.670367"
     inkscape:window-width="1392"
     inkscape:window-height="1027"
     inkscape:window-x="445"
     inkscape:window-y="25"
     inkscape:window-maximized="0"
     inkscape:current-layer="layer1" /><defs
     id="defs1" /><g
     inkscape:label="Layer 1"
     inkscape:groupmode="layer"
     id="layer1"><path
       style="fill:none;fill-opacity:0.689243;stroke:#000000;stroke-width:0.265;stroke-opacity:1;stroke-dasharray:none"
       d="m 22.864983,4.8983583 -19.3491998,0.06182 v -2.53456 l 20.8637598,0.06182 0.0309,2.410923 h -1.63819 L 20.392243,26.349393 7.4412602,26.380303 4.9376092,4.8983623"
       id="path1" /><path
       style="fill:none;fill-opacity:0.689243;stroke:#000000;stroke-width:0.265213"
       d="M 7.0017028,21.858656 20.857504,21.8196"
       id="path3" /><path
       style="fill:none;fill-opacity:1;stroke:#000000;stroke-width:0.264583;stroke-opacity:1"
       d="M 4.9956428,2.3337309 5.5061463,0.32818091"
       id="path19" /><path
       style="fill:none;fill-opacity:1;stroke:#000000;stroke-width:0.264583;stroke-opacity:1"
       d="M 23.446703,2.40666 22.790341,0.32818091 H 5.3967527"
       id="path20" /><path
       style="fill:#c3dbb8;stroke:#c3dbb8;stroke-width:0.158561;fill-opacity:1;stroke-opacity:1"
       d="m 28.587998,98.509754 c -0.05189,-0.326519 -0.449993,-3.692632 -0.884682,-7.480251 -0.43469,-3.787619 -0.829171,-7.118111 -0.876625,-7.401094 l -0.08628,-0.514515 H 52.555486 78.37056 l -0.07685,0.356203 c -0.04227,0.195911 -0.447503,3.74705 -0.900515,7.891419 l -0.823659,7.535218 -3.085764,0.103346 c -1.697169,0.05684 -12.471789,0.103344 -23.943597,0.103344 h -20.85784 z"
       id="path7"
       transform="scale(0.26458333)" /><path
       style="fill:#000000;fill-opacity:1;stroke:#000000;stroke-width:0.264999;stroke-opacity:1"
       d="M 6.4505617,17.969422 21.320363,17.927535"
       id="path8" /><path
       style="fill:#a8bac1;fill-opacity:1;stroke:#a8bac1;stroke-width:0.158561;stroke-opacity:1"
       d="m 26.588956,81.649507 c -0.0041,-0.195912 -0.344035,-3.212451 -0.755366,-6.703422 l -0.747876,-6.347219 5.069373,-0.103737 c 2.788155,-0.05706 15.141195,-0.103856 27.451202,-0.104002 l 22.381829,-2.66e-4 -0.08853,0.593671 c -0.04869,0.326519 -0.390221,3.342718 -0.758947,6.702665 L 78.47023,81.796191 69.684146,81.90095 C 64.8518,81.95857 53.1802,82.005709 43.747257,82.005709 H 26.596446 Z"
       id="path9"
       transform="scale(0.26458333)" /><path
       style="fill:#fff6e9;fill-opacity:1;stroke:#ffffff;stroke-width:0.158561"
       d="M 24.870231,66.689006 C 24.602165,64.954813 19.368739,19.44413 19.430305,19.382564 c 0.04008,-0.04008 14.90178,-0.119306 33.025996,-0.176053 28.363941,-0.08881 32.951896,-0.07197 32.944338,0.120933 -0.0048,0.123261 -1.19978,10.910182 -2.655443,23.970937 l -2.64666,23.746827 -3.874936,0.09696 c -2.131214,0.05333 -14.536935,0.10676 -27.568267,0.118735 l -23.693334,0.02177 z"
       id="path2"
       inkscape:label="path2"
       transform="scale(0.26458333)" /><text
       xml:space="preserve"
       style="font-style:normal;font-variant:normal;font-weight:normal;font-stretch:normal;font-size:2.11667px;font-family:Sans;-inkscape-font-specification:'Sans, Normal';font-variant-ligatures:normal;font-variant-caps:normal;font-variant-numeric:normal;font-variant-east-asian:normal;fill:#ffffff;fill-opacity:1;stroke:#ffffff;stroke-width:0.264583;stroke-opacity:1"
       x="6.9086356"
       y="20.488674"
       id="text19-3"><tspan
         sodipodi:role="line"
         id="tspan9"
         x="6.9086356"
         y="20.488674"
         style="font-size:2.11667px;fill:#ffffff;stroke:#ffffff;stroke-opacity:1">VARMT VAND</tspan></text><text
       xml:space="preserve"
       style="font-style:normal;font-variant:normal;font-weight:normal;font-stretch:normal;font-size:2.46944px;font-family:sans-serif;-inkscape-font-specification:'sans-serif, Normal';font-variant-ligatures:normal;font-variant-caps:normal;font-variant-numeric:normal;font-variant-east-asian:normal;fill:#000000;fill-opacity:1;stroke:#000000;stroke-width:0.264583;stroke-opacity:1"
       x="11.512712"
       y="24.788454"
       id="text19"><tspan
         sodipodi:role="line"
         id="tspan19"
         style="font-style:normal;font-variant:normal;font-weight:normal;font-stretch:normal;font-size:2.11667px;font-family:Sans;-inkscape-font-specification:'Sans, Normal';font-variant-ligatures:normal;font-variant-caps:normal;font-variant-numeric:normal;font-variant-east-asian:normal;fill:#000000;stroke:#000000;stroke-width:0.264583;stroke-opacity:1"
         x="11.512712"
         y="24.788454">CHAI</tspan></text><text
       xml:space="preserve"
       style="font-style:normal;font-variant:normal;font-weight:normal;font-stretch:normal;font-size:2.46944px;font-family:sans-serif;-inkscape-font-specification:'sans-serif, Normal';font-variant-ligatures:normal;font-variant-caps:normal;font-variant-numeric:normal;font-variant-east-asian:normal;fill:#000000;fill-opacity:1;stroke:#060000;stroke-width:0.264583;stroke-opacity:1"
       x="14.097631"
       y="10.708291"
       id="text19-4"><tspan
         sodipodi:role="line"
         style="font-style:normal;font-variant:normal;font-weight:normal;font-stretch:normal;font-size:2.11667px;font-family:Sans;-inkscape-font-specification:'Sans, Normal';font-variant-ligatures:normal;font-variant-caps:normal;font-variant-numeric:normal;font-variant-east-asian:normal;text-align:center;text-anchor:middle;fill:#000000;stroke:#060000;stroke-width:0.264583;stroke-opacity:1"
         x="14.097631"
         y="10.708291"
         id="tspan1">LET SKUMMET </tspan><tspan
         sodipodi:role="line"
         style="font-style:normal;font-variant:normal;font-weight:normal;font-stretch:normal;font-size:2.11667px;font-family:Sans;-inkscape-font-specification:'Sans, Normal';font-variant-ligatures:normal;font-variant-caps:normal;font-variant-numeric:normal;font-variant-east-asian:normal;text-align:center;text-anchor:middle;fill:#000000;stroke:#060000;stroke-width:0.264583;stroke-opacity:1"
         x="14.097631"
         y="13.795091"
         id="tspan6">MÆLK</tspan></text><path
       style="fill:#ffffff;fill-opacity:1;stroke:#ffffff;stroke-width:0.158561"
       d="M 13.852316,13.981278 V 9.7628938 l 38.814978,0.1074965 c 21.348239,0.059123 38.83134,0.1243573 38.851338,0.1449647 0.02,0.02061 0.0606,1.792185 0.09024,3.936839 l 0.05388,3.899371 -14.723033,0.09454 c -8.097668,0.052 -25.605016,0.130319 -38.905218,0.174048 l -24.182185,0.07951 z"
       id="path4"
       transform="scale(0.26458333)" /><path
       style="fill:#ffffff;fill-opacity:1;stroke:#ffffff;stroke-width:0.158561"
       d="M 50.079386,8.7136977 C 33.390626,8.6665715 19.697485,8.5892992 19.650186,8.5419812 19.602886,8.4946633 19.95259,6.962993 20.427306,5.1382694 20.902022,3.3135458 21.291002,1.8027799 21.291707,1.781012 21.292412,1.7592441 35.778353,1.741434 53.482687,1.741434 h 32.189701 l 0.765794,2.4142607 c 0.421187,1.3278434 0.926429,2.9307542 1.122758,3.562024 L 87.917903,8.865482 84.170245,8.832432 C 82.109033,8.8142543 66.768147,8.7608239 50.079386,8.7136977 Z"
       id="path5"
       transform="scale(0.26458333)" /></g></svg>
