<?xml version="1.0" encoding="UTF-8" standalone="no"?>
<!-- Created with Inkscape (http://www.inkscape.org/) -->

<svg
   width="100"
   height="100"
   viewBox="0 0 26.458333 26.458333"
   version="1.1"
   id="svg1"
   inkscape:version="1.3.2 (091e20e, 2023-11-25)"
   sodipodi:docname="Cortado.svg"
   xml:space="preserve"
   xmlns:inkscape="http://www.inkscape.org/namespaces/inkscape"
   xmlns:sodipodi="http://sodipodi.sourceforge.net/DTD/sodipodi-0.dtd"
   xmlns="http://www.w3.org/2000/svg"
   xmlns:svg="http://www.w3.org/2000/svg"><sodipodi:namedview
     id="namedview1"
     pagecolor="#ffffff"
     bordercolor="#000000"
     borderopacity="0.25"
     inkscape:showpageshadow="2"
     inkscape:pageopacity="0.0"
     inkscape:pagecheckerboard="0"
     inkscape:deskcolor="#d1d1d1"
     inkscape:document-units="mm"
     inkscape:zoom="6.3166334"
     inkscape:cx="56.200824"
     inkscape:cy="44.644035"
     inkscape:window-width="1392"
     inkscape:window-height="1027"
     inkscape:window-x="165"
     inkscape:window-y="25"
     inkscape:window-maximized="0"
     inkscape:current-layer="layer1" /><defs
     id="defs1" /><g
     inkscape:label="Layer 1"
     inkscape:groupmode="layer"
     id="layer1"><path
       style="fill:none;fill-opacity:1;stroke:#000000;stroke-width:0.264583;stroke-opacity:1"
       d="M 4.9956428,2.3337309 5.5061463,0.32818091"
       id="path19" /><path
       style="fill:#622718;fill-opacity:1;stroke:#000000;stroke-width:0.0477523"
       d="M 7.235879,24.127057 C 7.1328969,22.870818 7.0526986,21.837119 7.0576456,21.829944 c 0.030011,-0.0435 13.7841134,-0.08224 13.7833734,-0.03882 -0.0024,0.1487 -0.35827,4.515086 -0.368869,4.527505 -0.0069,0.0081 -2.945705,0.03213 -6.530762,0.05355 l -6.5182814,0.03893 z"
       id="path17"
       inkscape:label="path17" /><path
       style="fill:#fff6e9;fill-opacity:1;stroke:#fff6e9;stroke-width:0.15874016;stroke-opacity:1;stroke-dasharray:none"
       d="m 26.596446,81.77058 c 0,-0.129321 -0.391822,-3.585537 -0.870717,-7.680479 -0.478894,-4.094943 -0.870717,-7.544303 -0.870717,-7.665245 0,-0.167577 0.386078,-0.241014 1.6227,-0.308657 1.936309,-0.105916 53.614233,-0.483433 53.705338,-0.392328 0.03472,0.03472 -0.336768,3.665194 -0.82552,8.067728 l -0.888641,8.004608 -8.785414,0.104752 c -4.831979,0.05761 -16.503279,0.104751 -25.936222,0.104751 -15.063811,0 -17.150807,-0.02861 -17.150807,-0.23513 z m 16.002029,-5.582843 0.0125,-1.226919 0.232545,0.65597 c 0.183213,0.516815 0.323728,0.669353 0.662383,0.719057 0.837198,0.122874 1.196137,-0.07734 1.483678,-0.827588 l 0.270486,-0.705752 0.0086,1.306076 0.0086,1.306075 h 1.64117 1.641171 l 0.328959,-0.791561 C 49.196,75.883328 49.254354,75.831534 49.78039,75.831534 h 0.562866 v 0.791561 0.791561 h 2.453839 2.453839 V 76.464783 75.51491 H 53.746985 52.24302 v -0.474936 -0.474937 h 1.424809 1.42481 V 73.69432 72.823603 h -1.42481 c -1.319267,0 -1.424809,-0.02345 -1.424809,-0.316624 0,-0.293171 0.105542,-0.316625 1.424809,-0.316625 h 1.42481 v -0.949873 -0.949873 h -2.817598 -2.817599 l -1.100627,2.636927 -1.100629,2.636927 -0.04341,-2.636927 -0.04341,-2.636927 h -1.080131 -1.080129 l -0.531076,1.422097 c -0.32788,0.877989 -0.577751,1.347421 -0.653068,1.22692 -0.0671,-0.107348 -0.318665,-0.747292 -0.559043,-1.422097 l -0.43705,-1.22692 H 41.757554 40.68623 v 3.562024 3.562024 h 0.949873 0.949874 z m 19.143275,0.242041 v -0.984877 l 0.993712,0.984877 0.993709,0.984878 h 1.301817 c 0.715999,0 1.301816,-0.05231 1.301816,-0.116257 0,-0.06394 -0.788333,-0.906832 -1.75185,-1.87309 l -1.751849,-1.756834 1.672693,-1.597016 c 0.919981,-0.878359 1.672693,-1.638379 1.672693,-1.688933 0,-0.05056 -0.585668,-0.09192 -1.301484,-0.09192 h -1.301486 l -0.914884,0.90534 -0.914887,0.905339 v -0.905339 -0.90534 h -0.949873 -0.949873 v 2.612151 2.612151 h -1.266497 -1.266498 v -2.612151 -2.612151 h -0.949873 -0.949873 v 3.562024 3.562024 h 3.166244 3.166243 z"
       id="path4"
       transform="scale(0.26458333)" /><text
       xml:space="preserve"
       style="font-style:normal;font-variant:normal;font-weight:normal;font-stretch:normal;font-size:2.46944px;font-family:sans-serif;-inkscape-font-specification:'sans-serif, Normal';font-variant-ligatures:normal;font-variant-caps:normal;font-variant-numeric:normal;font-variant-east-asian:normal;fill:#000000;fill-opacity:1;stroke:#060000;stroke-width:0.264583;stroke-opacity:1"
       x="10.704056"
       y="20.313488"
       id="text19-4"><tspan
         sodipodi:role="line"
         id="tspan19-1"
         style="font-style:normal;font-variant:normal;font-weight:normal;font-stretch:normal;font-size:2.11667px;font-family:Sans;-inkscape-font-specification:'Sans, Normal';font-variant-ligatures:normal;font-variant-caps:normal;font-variant-numeric:normal;font-variant-east-asian:normal;fill:#000000;stroke:#060000;stroke-width:0.264583;stroke-opacity:1"
         x="10.704056"
         y="20.313488">MÆLK</tspan></text><path
       style="fill:none;fill-opacity:0.689243;stroke:#000000;stroke-width:0.264583;stroke-opacity:1"
       d="m 22.864983,4.8983583 -19.3491998,0.06182 v -2.53456 l 20.8637598,0.06182 0.0309,2.410923 h -1.63819 L 20.392243,26.349393 7.4412602,26.380303 4.9376092,4.8983623"
       id="path1" /><path
       style="fill:none;fill-opacity:0.689243;stroke:#000000;stroke-width:0.265213"
       d="M 7.0017028,21.858656 20.857504,21.8196"
       id="path3" /><text
       xml:space="preserve"
       style="font-style:normal;font-variant:normal;font-weight:normal;font-stretch:normal;font-size:2.46944px;font-family:sans-serif;-inkscape-font-specification:'sans-serif, Normal';font-variant-ligatures:normal;font-variant-caps:normal;font-variant-numeric:normal;font-variant-east-asian:normal;fill:none;fill-opacity:1;stroke:#ffffff;stroke-width:0.264583;stroke-opacity:1"
       x="8.4130917"
       y="24.830341"
       id="text19"><tspan
         sodipodi:role="line"
         id="tspan19"
         style="font-style:normal;font-variant:normal;font-weight:normal;font-stretch:normal;font-size:2.11667px;font-family:Sans;-inkscape-font-specification:'Sans, Normal';font-variant-ligatures:normal;font-variant-caps:normal;font-variant-numeric:normal;font-variant-east-asian:normal;fill:none;stroke:#ffffff;stroke-width:0.264583;stroke-opacity:1"
         x="8.4130917"
         y="24.830341">ESPRESSO</tspan></text><path
       style="fill:none;fill-opacity:1;stroke:#000000;stroke-width:0.264583;stroke-opacity:1"
       d="M 23.446703,2.40666 22.790341,0.32818091 H 5.3967527"
       id="path20" /><path
       style="fill:#000000;fill-opacity:1;stroke:#000000;stroke-width:0.264583;stroke-opacity:1"
       d="M 6.366788,17.34112 21.36225,17.21546"
       id="path2" /></g></svg>
