<?xml version="1.0" encoding="UTF-8" standalone="no"?>
<!-- Created with Inkscape (http://www.inkscape.org/) -->

<svg
   width="100"
   height="100"
   viewBox="0 0 26.458333 26.458333"
   version="1.1"
   id="svg1"
   inkscape:version="1.3.2 (091e20e, 2023-11-25)"
   sodipodi:docname="Cortado.svg"
   xml:space="preserve"
   xmlns:inkscape="http://www.inkscape.org/namespaces/inkscape"
   xmlns:sodipodi="http://sodipodi.sourceforge.net/DTD/sodipodi-0.dtd"
   xmlns="http://www.w3.org/2000/svg"
   xmlns:svg="http://www.w3.org/2000/svg"><sodipodi:namedview
     id="namedview1"
     pagecolor="#ffffff"
     bordercolor="#000000"
     borderopacity="0.25"
     inkscape:showpageshadow="2"
     inkscape:pageopacity="0.0"
     inkscape:pagecheckerboard="0"
     inkscape:deskcolor="#d1d1d1"
     inkscape:document-units="mm"
     inkscape:zoom="6.3166334"
     inkscape:cx="56.121668"
     inkscape:cy="44.644035"
     inkscape:window-width="1392"
     inkscape:window-height="1027"
     inkscape:window-x="165"
     inkscape:window-y="25"
     inkscape:window-maximized="0"
     inkscape:current-layer="layer1" /><defs
     id="defs1" /><g
     inkscape:label="Layer 1"
     inkscape:groupmode="layer"
     id="layer1"><path
       style="fill:none;fill-opacity:1;stroke:#000000;stroke-width:0.264583;stroke-opacity:1"
       d="M 4.9956428,2.3337309 5.5061463,0.32818091"
       id="path19" /><path
       style="fill:#622718;fill-opacity:1;stroke:#000000;stroke-width:0.0477523"
       d="M 7.235879,24.127057 C 7.1328969,22.870818 7.0526986,21.837119 7.0576456,21.829944 c 0.030011,-0.0435 13.7841134,-0.08224 13.7833734,-0.03882 -0.0024,0.1487 -0.35827,4.515086 -0.368869,4.527505 -0.0069,0.0081 -2.945705,0.03213 -6.530762,0.05355 l -6.5182814,0.03893 z"
       id="path17"
       inkscape:label="path17" /><path
       style="fill:none;fill-opacity:0.689243;stroke:#000000;stroke-width:0.264583;stroke-opacity:1"
       d="m 22.864983,4.8983583 -19.3491998,0.06182 v -2.53456 l 20.8637598,0.06182 0.0309,2.410923 h -1.63819 L 20.392243,26.349393 7.4412602,26.380303 4.9376092,4.8983623"
       id="path1" /><path
       style="fill:none;fill-opacity:0.689243;stroke:#000000;stroke-width:0.265213"
       d="M 7.0017028,21.858656 20.857504,21.8196"
       id="path3" /><text
       xml:space="preserve"
       style="font-style:normal;font-variant:normal;font-weight:normal;font-stretch:normal;font-size:2.46944px;font-family:sans-serif;-inkscape-font-specification:'sans-serif, Normal';font-variant-ligatures:normal;font-variant-caps:normal;font-variant-numeric:normal;font-variant-east-asian:normal;fill:none;fill-opacity:1;stroke:#ffffff;stroke-width:0.264583;stroke-opacity:1"
       x="8.4130917"
       y="24.830341"
       id="text19"><tspan
         sodipodi:role="line"
         id="tspan19"
         style="font-style:normal;font-variant:normal;font-weight:normal;font-stretch:normal;font-size:2.11667px;font-family:Sans;-inkscape-font-specification:'Sans, Normal';font-variant-ligatures:normal;font-variant-caps:normal;font-variant-numeric:normal;font-variant-east-asian:normal;fill:none;stroke:#ffffff;stroke-width:0.264583;stroke-opacity:1"
         x="8.4130917"
         y="24.830341">ESPRESSO</tspan></text><path
       style="fill:none;fill-opacity:1;stroke:#000000;stroke-width:0.264583;stroke-opacity:1"
       d="M 23.446703,2.40666 22.790341,0.32818091 H 5.3967527"
       id="path20" /><path
       style="fill:#000000;fill-opacity:1;stroke:#000000;stroke-width:0.264583;stroke-opacity:1"
       d="M 6.366788,17.34112 21.36225,17.21546"
       id="path2" /><path
       style="fill:#ffffff;stroke:#ffffff;stroke-width:0.158561"
       d="M 24.619792,64.8116 C 24.621029,64.73401 23.437521,54.497112 21.989776,42.062941 20.54203,29.62877 19.390466,19.422403 19.430744,19.382126 c 0.04028,-0.04028 14.908559,-0.119496 33.040625,-0.176042 l 32.967395,-0.102809 -0.104728,0.857388 c -0.0576,0.471564 -1.189978,10.632945 -2.516393,22.580847 -1.326415,11.947902 -2.464895,21.776688 -2.529954,21.841747 -0.205147,0.205147 -55.671141,0.631938 -55.667897,0.428343 z"
       id="path5"
       transform="scale(0.26458333)" /><path
       style="fill:#ffffff;stroke:#ffffff;stroke-width:0.158561"
       d="M 13.852316,13.981466 V 9.7628684 l 38.814668,0.1071984 c 21.348068,0.058959 38.830591,0.1241989 38.850054,0.1449772 0.01946,0.02078 0.06021,1.792476 0.09055,3.937106 l 0.05516,3.899326 -14.564721,0.09458 c -8.010596,0.05202 -25.517944,0.13045 -38.905218,0.174294 l -24.340497,0.07972 z"
       id="path6"
       transform="scale(0.26458333)" /><path
       style="fill:#ffffff;stroke:#ffffff;stroke-width:0.158561"
       d="M 50.00023,8.7135631 C 33.355004,8.666511 19.697484,8.5892992 19.650185,8.5419812 19.602886,8.4946633 19.95259,6.962993 20.427306,5.1382694 20.902022,3.3135458 21.291002,1.8027799 21.291707,1.781012 21.292412,1.7592441 35.778353,1.741434 53.482687,1.741434 h 32.189701 l 0.765794,2.4142607 c 0.421187,1.3278434 0.926429,2.9307542 1.122758,3.562024 L 87.917903,8.865482 84.091089,8.8322973 C 81.986341,8.8140458 66.645454,8.7606154 50.00023,8.7135631 Z"
       id="path7"
       transform="scale(0.26458333)" /><path
       style="fill:#ffffff;stroke:#ffffff;stroke-width:0.158561"
       d="M 24.570879,64.33589 C 24.288478,62.488133 19.3665,19.446369 19.430307,19.382562 c 0.04185,-0.04185 14.904266,-0.121755 33.027599,-0.177575 32.396127,-0.09978 32.951391,-0.09638 32.944177,0.201694 -0.02361,0.975451 -5.013085,44.875267 -5.111533,44.973715 -0.126295,0.126297 -11.715052,0.260944 -39.066123,0.453905 l -16.559518,0.116826 z"
       id="path4"
       transform="scale(0.26458333)" /><path
       style="fill:#ffffff;stroke:#ffffff;stroke-width:0.158561"
       d="M 13.852316,14.003374 V 9.7629601 l 38.80977,0.102254 c 21.345373,0.05624 38.826097,0.1214589 38.846053,0.1449319 0.01996,0.02347 0.06979,1.797306 0.110737,3.941852 l 0.07445,3.899174 -14.421697,0.09768 c -7.931932,0.05373 -25.446159,0.142063 -38.920505,0.196308 l -24.498809,0.09863 z"
       id="path8"
       transform="scale(0.26458333)" /><path
       style="fill:#ffffff;stroke:#ffffff;stroke-width:0.158561"
       d="M 44.617617,8.7071699 C 30.93283,8.663634 19.699126,8.590939 19.653831,8.5456254 c -0.0453,-0.045314 0.291623,-1.576984 0.748708,-3.4037118 L 21.233603,1.8205901 53.466975,1.780631 85.700346,1.740672 85.9416,2.4930358 c 0.132691,0.4138001 0.611142,1.9278318 1.063224,3.3645148 0.452085,1.4366831 0.855763,2.7016042 0.897062,2.810936 0.05983,0.1583779 -1.802913,0.190558 -9.163873,0.1583122 -5.081432,-0.02226 -20.435609,-0.076093 -34.120396,-0.1196289 z"
       id="path9"
       transform="scale(0.26458333)" /><path
       style="fill:#fff6e9;fill-opacity:1;stroke:#fff6e9;stroke-width:0.158561;stroke-opacity:1"
       d="M 26.606252,81.514458 C 26.555417,81.21868 26.159182,77.877719 25.725729,74.0901 25.292276,70.302481 24.899345,66.979134 24.85255,66.704885 l -0.08508,-0.498635 1.785206,-0.08962 c 2.603377,-0.130693 53.470117,-0.473863 53.582489,-0.361492 0.106316,0.106317 -1.621874,15.917113 -1.754283,16.049522 -0.04632,0.04632 -11.693767,0.120978 -25.883211,0.165899 l -25.79899,0.08168 z"
       id="path10"
       transform="scale(0.26458333)" /><text
       xml:space="preserve"
       style="font-style:normal;font-variant:normal;font-weight:normal;font-stretch:normal;font-size:2.46944px;font-family:sans-serif;-inkscape-font-specification:'sans-serif, Normal';font-variant-ligatures:normal;font-variant-caps:normal;font-variant-numeric:normal;font-variant-east-asian:normal;fill:#000000;fill-opacity:1;stroke:#060000;stroke-width:0.264583;stroke-opacity:1"
       x="10.704058"
       y="20.313488"
       id="text19-4"><tspan
         sodipodi:role="line"
         id="tspan19-1"
         style="font-style:normal;font-variant:normal;font-weight:normal;font-stretch:normal;font-size:2.11667px;font-family:Sans;-inkscape-font-specification:'Sans, Normal';font-variant-ligatures:normal;font-variant-caps:normal;font-variant-numeric:normal;font-variant-east-asian:normal;fill:#000000;stroke:#060000;stroke-width:0.264583;stroke-opacity:1"
         x="10.704058"
         y="20.313488">MÆLK</tspan></text></g></svg>
