<?xml version="1.0" encoding="UTF-8" standalone="no"?>
<!-- Created with Inkscape (http://www.inkscape.org/) -->

<svg
   width="100"
   height="100"
   viewBox="0 0 26.458333 26.458333"
   version="1.1"
   id="svg1"
   inkscape:version="1.3.2 (091e20e, 2023-11-25)"
   sodipodi:docname="Espresso.svg"
   xml:space="preserve"
   xmlns:inkscape="http://www.inkscape.org/namespaces/inkscape"
   xmlns:sodipodi="http://sodipodi.sourceforge.net/DTD/sodipodi-0.dtd"
   xmlns="http://www.w3.org/2000/svg"
   xmlns:svg="http://www.w3.org/2000/svg"><sodipodi:namedview
     id="namedview1"
     pagecolor="#ffffff"
     bordercolor="#000000"
     borderopacity="0.25"
     inkscape:showpageshadow="2"
     inkscape:pageopacity="0.0"
     inkscape:pagecheckerboard="0"
     inkscape:deskcolor="#d1d1d1"
     inkscape:document-units="mm"
     inkscape:zoom="4.469228"
     inkscape:cx="51.798655"
     inkscape:cy="66.006926"
     inkscape:window-width="1728"
     inkscape:window-height="1027"
     inkscape:window-x="72"
     inkscape:window-y="25"
     inkscape:window-maximized="0"
     inkscape:current-layer="layer1" /><defs
     id="defs1" /><g
     inkscape:label="Layer 1"
     inkscape:groupmode="layer"
     id="layer1"><path
       style="fill:#622718;fill-opacity:1;stroke:#000000;stroke-width:0.0477523"
       d="M 7.235879,24.127057 C 7.1328969,22.870818 7.0526986,21.837119 7.0576456,21.829944 c 0.030011,-0.0435 13.7841134,-0.08224 13.7833734,-0.03882 -0.0024,0.1487 -0.35827,4.515086 -0.368869,4.527505 -0.0069,0.0081 -2.945705,0.03213 -6.530762,0.05355 l -6.5182814,0.03893 z"
       id="path17"
       inkscape:label="path17" /><path
       style="fill:none;fill-opacity:0.689243;stroke:#000000;stroke-width:0.264583;stroke-opacity:1"
       d="m 22.864983,4.8983583 -19.3491998,0.06182 v -2.53456 l 20.8637598,0.06182 0.0309,2.410923 h -1.63819 L 20.392243,26.349393 7.4412602,26.380303 4.9376092,4.8983623"
       id="path1" /><path
       style="fill:none;fill-opacity:0.689243;stroke:#000000;stroke-width:0.265213"
       d="M 7.0017028,21.858656 20.857504,21.8196"
       id="path3" /><text
       xml:space="preserve"
       style="font-style:normal;font-variant:normal;font-weight:normal;font-stretch:normal;font-size:2.46944px;font-family:sans-serif;-inkscape-font-specification:'sans-serif, Normal';font-variant-ligatures:normal;font-variant-caps:normal;font-variant-numeric:normal;font-variant-east-asian:normal;fill:none;fill-opacity:1;stroke:#ffffff;stroke-width:0.264583;stroke-opacity:1"
       x="8.4130917"
       y="24.830341"
       id="text19"><tspan
         sodipodi:role="line"
         id="tspan19"
         style="font-style:normal;font-variant:normal;font-weight:normal;font-stretch:normal;font-size:2.11667px;font-family:Sans;-inkscape-font-specification:'Sans, Normal';font-variant-ligatures:normal;font-variant-caps:normal;font-variant-numeric:normal;font-variant-east-asian:normal;fill:none;stroke:#ffffff;stroke-width:0.264583;stroke-opacity:1"
         x="8.4130917"
         y="24.830341">ESPRESSO</tspan></text><path
       style="fill:none;fill-opacity:1;stroke:#000000;stroke-width:0.264583;stroke-opacity:1"
       d="M 4.9956428,2.3337309 5.5061463,0.32818091"
       id="path19" /><path
       style="fill:none;fill-opacity:1;stroke:#000000;stroke-width:0.264583;stroke-opacity:1"
       d="M 23.446703,2.40666 22.790341,0.32818091 H 5.3967527"
       id="path20" /><path
       style="fill:#ffffff;stroke:#ffffff;stroke-width:0.224105;stroke-opacity:1"
       d="m 25.255516,8.5587591 -5.6223,-0.063741 0.825624,-3.296562 0.825624,-3.2965619 h 32.198688 32.198686 l 0.960352,3.0206559 c 0.528194,1.6613607 1.016688,3.1968608 1.085545,3.4122224 C 87.846581,8.7064826 86.408308,8.7237064 59.365374,8.6744196 43.697216,8.6458637 28.347781,8.5938164 25.255516,8.5587591 Z"
       id="path2"
       transform="scale(0.26458333)" /><path
       style="fill:#ffffff;stroke:#ffffff;stroke-width:0.224105;stroke-opacity:1"
       d="M 13.984518,13.984518 V 9.8451008 l 26.906213,2.297e-4 c 14.798417,1.263e-4 32.267877,0.066941 38.821022,0.148477 l 11.91481,0.1482475 v 3.842068 3.842068 l -28.024975,0.148774 c -15.413735,0.08182 -32.883195,0.148818 -38.821022,0.148872 l -10.796048,9.8e-5 z"
       id="path4"
       transform="scale(0.26458333)" /><path
       style="fill:#ffffff;stroke:#ffffff;stroke-width:0.224105;stroke-opacity:1"
       d="M 13.984518,13.980924 V 9.837913 l 32.723773,0.055752 c 17.998074,0.030664 35.467534,0.085785 38.821022,0.122492 l 6.09725,0.06674 v 3.871707 3.871707 L 68.300387,17.975004 C 55.47099,18.056786 38.00153,18.123752 29.479364,18.123817 l -15.494846,1.18e-4 z"
       id="path5"
       transform="scale(0.26458333)" /><path
       style="fill:#ffffff;stroke:#ffffff;stroke-width:0.224105;stroke-opacity:1"
       d="M 26.622056,81.333957 C 26.558495,80.964766 24.947997,67.220782 23.043172,50.79177 21.138347,34.362758 19.521005,20.54734 19.449079,20.09084 l -0.130775,-0.829999 32.965659,-0.06501 c 18.131113,-0.03576 32.995327,-0.05212 33.03159,-0.03637 0.08174,0.0355 -6.860764,62.555099 -6.957145,62.65148 -0.03832,0.03832 -11.668671,0.09771 -25.845229,0.131974 l -25.775557,0.0623 z"
       id="path6"
       transform="scale(0.26458333)" /></g></svg>
