<?xml version="1.0" encoding="UTF-8" standalone="no"?>
<!-- Created with Inkscape (http://www.inkscape.org/) -->

<svg
   width="100"
   height="100"
   viewBox="0 0 26.458333 26.458333"
   version="1.1"
   id="svg1"
   inkscape:version="1.3.2 (091e20e, 2023-11-25)"
   sodipodi:docname="Flat White.svg"
   xml:space="preserve"
   xmlns:inkscape="http://www.inkscape.org/namespaces/inkscape"
   xmlns:sodipodi="http://sodipodi.sourceforge.net/DTD/sodipodi-0.dtd"
   xmlns="http://www.w3.org/2000/svg"
   xmlns:svg="http://www.w3.org/2000/svg"><sodipodi:namedview
     id="namedview1"
     pagecolor="#ffffff"
     bordercolor="#000000"
     borderopacity="0.25"
     inkscape:showpageshadow="2"
     inkscape:pageopacity="0.0"
     inkscape:pagecheckerboard="0"
     inkscape:deskcolor="#d1d1d1"
     inkscape:document-units="mm"
     inkscape:zoom="16.687513"
     inkscape:cx="42.217196"
     inkscape:cy="59.505572"
     inkscape:window-width="1392"
     inkscape:window-height="1027"
     inkscape:window-x="165"
     inkscape:window-y="25"
     inkscape:window-maximized="0"
     inkscape:current-layer="layer1" /><defs
     id="defs1" /><g
     inkscape:label="Layer 1"
     inkscape:groupmode="layer"
     id="layer1"><path
       style="fill:#622718;fill-opacity:1;stroke:#000000;stroke-width:0.0477523"
       d="M 7.235879,24.127057 C 7.1328969,22.870818 7.0526986,21.837119 7.0576456,21.829944 c 0.030011,-0.0435 13.7841134,-0.08224 13.7833734,-0.03882 -0.0024,0.1487 -0.35827,4.515086 -0.368869,4.527505 -0.0069,0.0081 -2.945705,0.03213 -6.530762,0.05355 l -6.5182814,0.03893 z"
       id="path17"
       inkscape:label="path17" /><path
       style="fill:#fff6e9;fill-opacity:1;stroke:#fff6e9;stroke-width:0.0428427;stroke-dasharray:none;stroke-opacity:1"
       d="m 6.921693,21.824726 c 0,-0.03434 -0.2286289,-2.061212 -0.5080644,-4.504161 -0.2794355,-2.442949 -0.5081245,-4.474005 -0.5081983,-4.513457 -1.104e-4,-0.05915 0.061102,-0.07585 0.3492522,-0.09522 0.5152267,-0.03464 15.4888105,-0.172163 15.5178565,-0.14253 0.01361,0.0139 -0.199815,2.103217 -0.4743,4.642936 l -0.499064,4.617673 -2.350753,0.0286 c -1.292914,0.01573 -4.415347,0.02859 -6.938741,0.02859 -3.9724716,0 -4.587988,-0.0083 -4.587988,-0.06243 z m 4.279519,-4.528136 0.0022,-0.31324 0.06489,0.1595 c 0.04867,0.119634 0.09311,0.162828 0.177804,0.17282 0.251867,0.02971 0.327937,-0.0076 0.398855,-0.195698 l 0.0678,-0.179827 0.0031,0.334842 0.0031,0.334841 h 0.446179 0.446179 l 0.08169,-0.194424 c 0.07482,-0.178053 0.09431,-0.194423 0.231418,-0.194423 0.149225,0 0.14973,6.54e-4 0.14973,0.194423 v 0.194424 h 0.656423 0.656423 v -0.237629 -0.23763 h -0.402337 -0.402324 v -0.129616 -0.129616 h 0.38115 0.381149 v -0.259232 -0.259233 h -0.381149 c -0.310566,0 -0.38115,-0.012 -0.38115,-0.06481 0,-0.05281 0.07058,-0.06481 0.38115,-0.06481 h 0.381149 V 15.968023 15.70879 h -0.757379 -0.757414 l -0.290746,0.716218 -0.290743,0.716221 -0.01162,-0.716221 -0.01162,-0.716218 h -0.289808 -0.289814 l -0.14752,0.393086 -0.147521,0.393087 -0.142782,-0.393087 -0.142783,-0.393086 h -0.287027 -0.287032 v 0.950517 0.950519 h 0.254099 0.2541 z m 5.122152,0.04445 v -0.268786 l 0.265826,0.268786 0.265826,0.268785 h 0.358144 0.358144 l -0.484671,-0.495867 -0.48467,-0.495868 0.464186,-0.45251 0.464185,-0.452508 -0.354035,-0.0021 -0.354036,-0.0021 -0.238862,0.223055 -0.238862,0.223055 -0.0128,-0.223055 -0.0128,-0.223055 h -0.251885 -0.251886 v 0.712888 0.712889 h -0.3388 -0.338797 V 16.42176 15.708872 h -0.2541 -0.254099 v 0.950518 0.950518 h 0.846996 0.846998 z"
       id="path24" /><text
       xml:space="preserve"
       style="font-style:normal;font-variant:normal;font-weight:normal;font-stretch:normal;font-size:2.46944px;font-family:sans-serif;-inkscape-font-specification:'sans-serif, Normal';font-variant-ligatures:normal;font-variant-caps:normal;font-variant-numeric:normal;font-variant-east-asian:normal;fill:#000000;fill-opacity:1;stroke:#060000;stroke-width:0.264583;stroke-opacity:1"
       x="10.704056"
       y="17.40794"
       id="text19-4"><tspan
         sodipodi:role="line"
         id="tspan19-1"
         style="font-style:normal;font-variant:normal;font-weight:normal;font-stretch:normal;font-size:2.11667px;font-family:Sans;-inkscape-font-specification:'Sans, Normal';font-variant-ligatures:normal;font-variant-caps:normal;font-variant-numeric:normal;font-variant-east-asian:normal;fill:#000000;stroke:#060000;stroke-width:0.264583;stroke-opacity:1"
         x="10.704056"
         y="17.40794">MÆLK</tspan></text><path
       style="fill:none;fill-opacity:0.689243;stroke:#000000;stroke-width:0.265;stroke-opacity:1;stroke-dasharray:none"
       d="m 22.864983,4.8983583 -19.3491998,0.06182 v -2.53456 l 20.8637598,0.06182 0.0309,2.410923 h -1.63819 L 20.392243,26.349393 7.4412602,26.380303 4.9376092,4.8983623"
       id="path1" /><path
       style="fill:none;fill-opacity:0.689243;stroke:#000000;stroke-width:0.265213"
       d="M 7.0017028,21.858656 20.857504,21.8196"
       id="path3" /><text
       xml:space="preserve"
       style="font-style:normal;font-variant:normal;font-weight:normal;font-stretch:normal;font-size:2.46944px;font-family:sans-serif;-inkscape-font-specification:'sans-serif, Normal';font-variant-ligatures:normal;font-variant-caps:normal;font-variant-numeric:normal;font-variant-east-asian:normal;fill:none;fill-opacity:1;stroke:#ffffff;stroke-width:0.264583;stroke-opacity:1"
       x="8.4130917"
       y="24.830341"
       id="text19"><tspan
         sodipodi:role="line"
         id="tspan19"
         style="font-style:normal;font-variant:normal;font-weight:normal;font-stretch:normal;font-size:2.11667px;font-family:Sans;-inkscape-font-specification:'Sans, Normal';font-variant-ligatures:normal;font-variant-caps:normal;font-variant-numeric:normal;font-variant-east-asian:normal;fill:none;stroke:#ffffff;stroke-width:0.264583;stroke-opacity:1"
         x="8.4130917"
         y="24.830341">ESPRESSO</tspan></text><path
       style="fill:none;fill-opacity:1;stroke:#000000;stroke-width:0.264583;stroke-opacity:1"
       d="M 4.9956428,2.3337309 5.5061463,0.32818091"
       id="path19" /><path
       style="fill:none;fill-opacity:1;stroke:#000000;stroke-width:0.264583;stroke-opacity:1"
       d="M 23.446703,2.40666 22.790341,0.32818091 H 5.3967527"
       id="path20" /><path
       style="fill:#000000;fill-opacity:1;stroke:#000000;stroke-width:0.265;stroke-dasharray:none;stroke-opacity:1"
       d="M 5.8222602,12.649803 21.906777,12.482256"
       id="path5" /></g></svg>
