<?xml version="1.0" encoding="UTF-8" standalone="no"?>
<!-- Created with Inkscape (http://www.inkscape.org/) -->

<svg
   width="100"
   height="100"
   viewBox="0 0 26.458333 26.458333"
   version="1.1"
   id="svg1"
   inkscape:version="1.3.2 (091e20e, 2023-11-25)"
   sodipodi:docname="Flat White.svg"
   xml:space="preserve"
   xmlns:inkscape="http://www.inkscape.org/namespaces/inkscape"
   xmlns:sodipodi="http://sodipodi.sourceforge.net/DTD/sodipodi-0.dtd"
   xmlns="http://www.w3.org/2000/svg"
   xmlns:svg="http://www.w3.org/2000/svg"><sodipodi:namedview
     id="namedview1"
     pagecolor="#ffffff"
     bordercolor="#000000"
     borderopacity="0.25"
     inkscape:showpageshadow="2"
     inkscape:pageopacity="0.0"
     inkscape:pagecheckerboard="0"
     inkscape:deskcolor="#d1d1d1"
     inkscape:document-units="mm"
     inkscape:zoom="4.1706575"
     inkscape:cx="55.506836"
     inkscape:cy="62.10052"
     inkscape:window-width="1392"
     inkscape:window-height="1027"
     inkscape:window-x="165"
     inkscape:window-y="25"
     inkscape:window-maximized="0"
     inkscape:current-layer="layer1" /><defs
     id="defs1" /><g
     inkscape:label="Layer 1"
     inkscape:groupmode="layer"
     id="layer1"><path
       style="fill:#622718;fill-opacity:1;stroke:#000000;stroke-width:0.0477523"
       d="M 7.235879,24.127057 C 7.1328969,22.870818 7.0526986,21.837119 7.0576456,21.829944 c 0.030011,-0.0435 13.7841134,-0.08224 13.7833734,-0.03882 -0.0024,0.1487 -0.35827,4.515086 -0.368869,4.527505 -0.0069,0.0081 -2.945705,0.03213 -6.530762,0.05355 l -6.5182814,0.03893 z"
       id="path17"
       inkscape:label="path17" /><path
       style="fill:#fff6e9;stroke:#fff6e9;stroke-width:0.240148"
       d="m 26.662677,81.461976 c -0.257853,-1.124528 -3.846387,-32.78674 -3.729261,-32.903867 0.06758,-0.06758 10.742063,-0.228802 23.721082,-0.358281 12.979018,-0.129478 26.268656,-0.277589 29.53253,-0.329136 3.263874,-0.05155 5.938133,-0.0269 5.942799,0.05477 0.0047,0.08167 -0.82135,7.711227 -1.835593,16.954569 l -1.844078,16.806079 -6.975968,0.157231 c -3.836781,0.08648 -15.46113,0.157431 -25.831886,0.157676 l -18.855922,4.41e-4 z"
       id="path7"
       transform="scale(0.26458333)" /><text
       xml:space="preserve"
       style="font-style:normal;font-variant:normal;font-weight:normal;font-stretch:normal;font-size:2.46944px;font-family:sans-serif;-inkscape-font-specification:'sans-serif, Normal';font-variant-ligatures:normal;font-variant-caps:normal;font-variant-numeric:normal;font-variant-east-asian:normal;fill:#000000;fill-opacity:1;stroke:#060000;stroke-width:0.264583;stroke-opacity:1"
       x="10.704058"
       y="17.40794"
       id="text19-4"><tspan
         sodipodi:role="line"
         id="tspan19-1"
         style="font-style:normal;font-variant:normal;font-weight:normal;font-stretch:normal;font-size:2.11667px;font-family:Sans;-inkscape-font-specification:'Sans, Normal';font-variant-ligatures:normal;font-variant-caps:normal;font-variant-numeric:normal;font-variant-east-asian:normal;fill:#000000;stroke:#060000;stroke-width:0.264583;stroke-opacity:1"
         x="10.704058"
         y="17.40794">MÆLK</tspan></text><path
       style="fill:none;fill-opacity:0.689243;stroke:#000000;stroke-width:0.265;stroke-opacity:1;stroke-dasharray:none"
       d="m 22.864983,4.8983583 -19.3491998,0.06182 v -2.53456 l 20.8637598,0.06182 0.0309,2.410923 h -1.63819 L 20.392243,26.349393 7.4412602,26.380303 4.9376092,4.8983623"
       id="path1" /><path
       style="fill:none;fill-opacity:0.689243;stroke:#000000;stroke-width:0.265213"
       d="M 7.0017028,21.858656 20.857504,21.8196"
       id="path3" /><text
       xml:space="preserve"
       style="font-style:normal;font-variant:normal;font-weight:normal;font-stretch:normal;font-size:2.46944px;font-family:sans-serif;-inkscape-font-specification:'sans-serif, Normal';font-variant-ligatures:normal;font-variant-caps:normal;font-variant-numeric:normal;font-variant-east-asian:normal;fill:none;fill-opacity:1;stroke:#ffffff;stroke-width:0.264583;stroke-opacity:1"
       x="8.4130917"
       y="24.830341"
       id="text19"><tspan
         sodipodi:role="line"
         id="tspan19"
         style="font-style:normal;font-variant:normal;font-weight:normal;font-stretch:normal;font-size:2.11667px;font-family:Sans;-inkscape-font-specification:'Sans, Normal';font-variant-ligatures:normal;font-variant-caps:normal;font-variant-numeric:normal;font-variant-east-asian:normal;fill:none;stroke:#ffffff;stroke-width:0.264583;stroke-opacity:1"
         x="8.4130917"
         y="24.830341">ESPRESSO</tspan></text><path
       style="fill:none;fill-opacity:1;stroke:#000000;stroke-width:0.264583;stroke-opacity:1"
       d="M 4.9956428,2.3337309 5.5061463,0.32818091"
       id="path19" /><path
       style="fill:none;fill-opacity:1;stroke:#000000;stroke-width:0.264583;stroke-opacity:1"
       d="M 23.446703,2.40666 22.790341,0.32818091 H 5.3967527"
       id="path20" /><path
       style="fill:#000000;fill-opacity:1;stroke:#000000;stroke-width:0.265;stroke-dasharray:none;stroke-opacity:1"
       d="M 5.8222602,12.649803 21.906777,12.482256"
       id="path5" /><path
       style="fill:#ffffff;stroke:#ffffff;stroke-width:0.240148"
       d="m 22.642788,47.064409 c -0.0085,-0.104118 -0.738632,-6.339415 -1.622446,-13.856216 l -1.606936,-13.66691 6.957336,-0.146103 c 3.826535,-0.08036 18.63715,-0.16128 32.912477,-0.179828 l 25.95514,-0.03372 9.28e-4,0.539483 c 0.0013,0.755752 -2.889753,26.64607 -2.986212,26.742532 -0.04334,0.04334 -8.803361,0.174618 -19.466718,0.291738 -10.663359,0.117121 -24.054454,0.277158 -29.757991,0.35564 -5.703538,0.07848 -10.377048,0.05751 -10.385578,-0.04661 z"
       id="path2"
       transform="scale(0.26458333)" /><path
       style="fill:#ffffff;stroke:#ffffff;stroke-width:0.240148"
       d="M 14.026565,14.026829 V 9.7539154 L 52.65301,9.8955922 c 21.244545,0.077922 38.655452,0.1760948 38.690905,0.2181618 0.03545,0.04207 0.1388,1.829807 0.229664,3.972754 l 0.165201,3.896268 H 59.755137 c -17.591006,0 -35.076253,0.07132 -38.856108,0.158483 l -6.872464,0.158483 z"
       id="path4"
       transform="scale(0.26458333)" /><path
       style="fill:#ffffff;stroke:#ffffff;stroke-width:0.240148"
       d="m 49.72111,8.6916862 -30.122415,-0.061799 0.840312,-3.355862 0.840312,-3.355862 h 32.20297 32.202971 l 0.981721,3.1138719 c 0.539946,1.7126295 1.04437,3.277131 1.120938,3.47667 0.121429,0.3164384 -0.37726,0.3552579 -3.902586,0.3037896 C 81.662338,8.7800394 66.288438,8.7256758 49.72111,8.6916862 Z"
       id="path6"
       transform="scale(0.26458333)" /><path
       style="fill:#ffffff;stroke:#ffffff;stroke-width:0.240148;fill-opacity:1;stroke-opacity:1"
       d="m 22.646931,47.174816 c -0.172815,-0.91135 -3.246905,-27.665563 -3.186938,-27.736344 0.04791,-0.05655 14.867638,-0.151914 32.932734,-0.211928 l 32.845632,-0.109117 v 0.712071 c 0,0.966566 -2.852411,26.501269 -2.973963,26.62282 -0.144193,0.144196 -59.590515,0.864619 -59.617465,0.722498 z"
       id="path8"
       transform="scale(0.26458333)" /></g></svg>
