<?xml version="1.0" encoding="UTF-8" standalone="no"?>
<!-- Created with Inkscape (http://www.inkscape.org/) -->

<svg
   width="100"
   height="100"
   viewBox="0 0 26.458333 26.458333"
   version="1.1"
   id="svg1"
   inkscape:version="1.3.2 (091e20e, 2023-11-25)"
   sodipodi:docname="Te.svg"
   xml:space="preserve"
   xmlns:inkscape="http://www.inkscape.org/namespaces/inkscape"
   xmlns:sodipodi="http://sodipodi.sourceforge.net/DTD/sodipodi-0.dtd"
   xmlns="http://www.w3.org/2000/svg"
   xmlns:svg="http://www.w3.org/2000/svg"><sodipodi:namedview
     id="namedview1"
     pagecolor="#ffffff"
     bordercolor="#000000"
     borderopacity="0.25"
     inkscape:showpageshadow="2"
     inkscape:pageopacity="0.0"
     inkscape:pagecheckerboard="0"
     inkscape:deskcolor="#d1d1d1"
     inkscape:document-units="mm"
     inkscape:zoom="6.3166334"
     inkscape:cx="49.630868"
     inkscape:cy="43.535849"
     inkscape:window-width="1392"
     inkscape:window-height="1027"
     inkscape:window-x="0"
     inkscape:window-y="25"
     inkscape:window-maximized="0"
     inkscape:current-layer="layer1" /><defs
     id="defs1" /><g
     inkscape:label="Layer 1"
     inkscape:groupmode="layer"
     id="layer1"><path
       style="fill:#d0f0c0;fill-opacity:1;stroke:#000000;stroke-width:0.0477523"
       d="M 7.235879,24.127057 C 7.1328969,22.870818 7.0526986,21.837119 7.0576456,21.829944 c 0.030011,-0.0435 13.7841134,-0.08224 13.7833734,-0.03882 -0.0024,0.1487 -0.35827,4.515086 -0.368869,4.527505 -0.0069,0.0081 -2.945705,0.03213 -6.530762,0.05355 l -6.5182814,0.03893 z"
       id="path17"
       inkscape:label="path17" /><path
       style="fill:#a8bac1;fill-opacity:1;stroke:#a8bac1;stroke-width:0.0423922"
       d="M 6.8635517,21.623422 C 6.8630933,21.582904 6.4232343,17.836842 5.8860785,13.298838 5.3489227,8.7608352 4.9141721,5.0428772 4.9199665,5.0367093 c 0.00579,-0.00617 4.0091981,-0.023512 8.8964525,-0.038541 7.646988,-0.023517 8.886187,-0.019018 8.887851,0.032263 10e-4,0.032774 -0.415265,3.7836453 -0.925171,8.3352697 l -0.927103,8.275682 -2.368981,0.02785 c -1.302941,0.01532 -4.450155,0.02785 -6.99381,0.02785 -4.3758227,0 -4.6248719,-0.004 -4.6256533,-0.07367 z"
       id="path2" /><text
       xml:space="preserve"
       style="font-style:normal;font-variant:normal;font-weight:normal;font-stretch:normal;font-size:2.46944px;font-family:sans-serif;-inkscape-font-specification:'sans-serif, Normal';font-variant-ligatures:normal;font-variant-caps:normal;font-variant-numeric:normal;font-variant-east-asian:normal;fill:#ffffff;fill-opacity:1;stroke:#ffffff;stroke-width:0.264583;stroke-opacity:1"
       x="7.0180206"
       y="13.56972"
       id="text19-4"><tspan
         sodipodi:role="line"
         id="tspan19-1"
         style="font-style:normal;font-variant:normal;font-weight:normal;font-stretch:normal;font-size:2.11667px;font-family:Sans;-inkscape-font-specification:'Sans, Normal';font-variant-ligatures:normal;font-variant-caps:normal;font-variant-numeric:normal;font-variant-east-asian:normal;fill:#ffffff;stroke:#ffffff;stroke-width:0.264583;stroke-opacity:1"
         x="7.0180206"
         y="13.56972">VARMT VAND</tspan></text><path
       style="fill:none;fill-opacity:0.689243;stroke:#000000;stroke-width:0.264583;stroke-opacity:1"
       d="m 22.864983,4.8983583 -19.3491998,0.06182 v -2.53456 l 20.8637598,0.06182 0.0309,2.410923 h -1.63819 L 20.392243,26.349393 7.4412602,26.380303 4.9376092,4.8983623"
       id="path1" /><path
       style="fill:none;fill-opacity:0.689243;stroke:#000000;stroke-width:0.265213"
       d="M 7.0017028,21.858656 20.857504,21.8196"
       id="path3" /><text
       xml:space="preserve"
       style="font-style:normal;font-variant:normal;font-weight:normal;font-stretch:normal;font-size:1.5875px;font-family:sans-serif;-inkscape-font-specification:'sans-serif, Normal';font-variant-ligatures:normal;font-variant-caps:normal;font-variant-numeric:normal;font-variant-east-asian:normal;fill:#000000;fill-opacity:1;stroke:#000000;stroke-width:0.264583;stroke-opacity:1"
       x="8.0829134"
       y="24.490627"
       id="text19"><tspan
         sodipodi:role="line"
         id="tspan19"
         style="font-style:normal;font-variant:normal;font-weight:normal;font-stretch:normal;font-size:1.5875px;font-family:Sans;-inkscape-font-specification:'Sans, Normal';font-variant-ligatures:normal;font-variant-caps:normal;font-variant-numeric:normal;font-variant-east-asian:normal;fill:#000000;stroke:#000000;stroke-width:0.264583;stroke-opacity:1"
         x="8.0829134"
         y="24.490627">ØKOLOGISK TE</tspan></text><path
       style="fill:none;fill-opacity:1;stroke:#000000;stroke-width:0.264583;stroke-opacity:1"
       d="M 4.9956428,2.3337309 5.5061463,0.32818091"
       id="path19" /><path
       style="fill:none;fill-opacity:1;stroke:#000000;stroke-width:0.264583;stroke-opacity:1"
       d="M 23.446703,2.40666 22.790341,0.32818091 H 5.3967527"
       id="path20" /><path
       style="fill:#ffffff;stroke:#fff6e9;stroke-width:0.158561"
       d="M 13.852316,13.981466 V 9.7628684 l 38.814668,0.1071984 c 21.348068,0.058959 38.830591,0.1241989 38.850054,0.1449772 0.01946,0.02078 0.06021,1.792476 0.09055,3.937106 l 0.05516,3.899326 -14.564721,0.09458 c -8.010596,0.05202 -25.517944,0.13045 -38.905218,0.174294 l -24.340497,0.07972 z"
       id="path4"
       transform="scale(0.26458333)" /><path
       style="fill:#ffffff;stroke:#fff6e9;stroke-width:0.158561"
       d="M 50.00023,8.7135631 C 33.355004,8.666511 19.697484,8.5892992 19.650185,8.5419812 19.602886,8.4946633 19.95259,6.962993 20.427306,5.1382694 20.902022,3.3135458 21.291002,1.8027799 21.291707,1.781012 21.292412,1.7592441 35.778353,1.741434 53.482687,1.741434 h 32.189701 l 0.765794,2.4142607 c 0.421187,1.3278434 0.926429,2.9307542 1.122758,3.562024 L 87.917903,8.865482 84.091089,8.8322973 C 81.986341,8.8140458 66.645454,8.7606154 50.00023,8.7135631 Z"
       id="path5"
       transform="scale(0.26458333)" /></g></svg>
