<?xml version="1.0" encoding="UTF-8" standalone="no"?>
<!-- Created with Inkscape (http://www.inkscape.org/) -->

<svg
   width="100"
   height="100"
   viewBox="0 0 26.458333 26.458333"
   version="1.1"
   id="svg1"
   inkscape:version="1.3.2 (091e20e, 2023-11-25)"
   sodipodi:docname="Varm Kakao.svg"
   xml:space="preserve"
   xmlns:inkscape="http://www.inkscape.org/namespaces/inkscape"
   xmlns:sodipodi="http://sodipodi.sourceforge.net/DTD/sodipodi-0.dtd"
   xmlns="http://www.w3.org/2000/svg"
   xmlns:svg="http://www.w3.org/2000/svg"><sodipodi:namedview
     id="namedview1"
     pagecolor="#ffffff"
     bordercolor="#000000"
     borderopacity="0.25"
     inkscape:showpageshadow="2"
     inkscape:pageopacity="0.0"
     inkscape:pagecheckerboard="0"
     inkscape:deskcolor="#d1d1d1"
     inkscape:document-units="mm"
     inkscape:zoom="6.7644892"
     inkscape:cx="49.301579"
     inkscape:cy="48.784171"
     inkscape:window-width="1392"
     inkscape:window-height="1027"
     inkscape:window-x="211"
     inkscape:window-y="25"
     inkscape:window-maximized="0"
     inkscape:current-layer="layer1" /><defs
     id="defs1" /><g
     inkscape:label="Layer 1"
     inkscape:groupmode="layer"
     id="layer1"><path
       style="fill:#622718;fill-opacity:1;stroke:#622718;stroke-width:0.0291639;stroke-opacity:1"
       d="m 7.3294864,26.272666 c -0.029296,-0.210444 -0.4978175,-4.392623 -0.4926738,-4.39776 0.01188,-0.01186 14.1402434,-0.04673 14.1402434,-0.0349 0,0.06529 -0.48574,4.503023 -0.493798,4.511349 -0.0058,0.006 -2.963754,0.02022 -6.573111,0.03149 l -6.5624711,0.02049 z"
       id="path14" /><path
       style="fill:#a8bac1;fill-opacity:1;stroke:#a8bac1;stroke-width:0.0445354;stroke-opacity:1"
       d="m 6.957932,21.729289 c -0.0011,-0.05777 -0.092047,-0.947207 -0.2021004,-1.976535 l -0.2000965,-1.871508 1.3563262,-0.03059 c 0.7459794,-0.01683 4.0510727,-0.03063 7.3446527,-0.03067 l 5.988326,-7.9e-5 -0.02369,0.175047 c -0.01303,0.09628 -0.104405,0.985617 -0.203059,1.976312 l -0.17937,1.801266 -2.350744,0.03089 c -1.292908,0.01699 -4.415681,0.03089 -6.939493,0.03089 H 6.9599361 Z"
       id="path9" /><path
       style="fill:none;fill-opacity:0.689243;stroke:#000000;stroke-width:0.265;stroke-opacity:1;stroke-dasharray:none"
       d="m 22.864983,4.8983583 -19.3491998,0.06182 v -2.53456 l 20.8637598,0.06182 0.0309,2.410923 h -1.63819 L 20.392243,26.349393 7.4412602,26.380303 4.9376092,4.8983623"
       id="path1" /><path
       style="fill:none;fill-opacity:0.689243;stroke:#000000;stroke-width:0.265213"
       d="M 7.0017028,21.858656 20.857504,21.8196"
       id="path3" /><path
       style="fill:none;fill-opacity:1;stroke:#000000;stroke-width:0.264583;stroke-opacity:1"
       d="M 4.9956428,2.3337309 5.5061463,0.32818091"
       id="path19" /><path
       style="fill:none;fill-opacity:1;stroke:#000000;stroke-width:0.264583;stroke-opacity:1"
       d="M 23.446703,2.40666 22.790341,0.32818091 H 5.3967527"
       id="path20" /><path
       style="fill:#000000;fill-opacity:1;stroke:#000000;stroke-width:0.264999;stroke-opacity:1"
       d="M 6.4505617,17.969422 21.320363,17.927535"
       id="path8" /><path
       style="fill:#fff6e9;stroke:#fff6e9;stroke-width:0.148064;fill-opacity:1;stroke-opacity:1"
       d="M 24.902366,67.115193 C 24.898466,66.993233 23.647703,56.216366 22.122894,43.1666 l -2.77238,-23.726847 1.264224,-0.09492 c 0.695323,-0.05221 15.550225,-0.129838 33.010893,-0.172515 l 31.746669,-0.07759 -0.0039,0.320346 c -0.0068,0.554972 -5.275607,47.707012 -5.337792,47.769197 -0.03257,0.03257 -12.448155,0.08025 -27.590181,0.105949 -24.391692,0.0414 -27.531766,0.02144 -27.538049,-0.175022 z"
       id="path5"
       transform="scale(0.26458333)" /><text
       xml:space="preserve"
       style="font-style:normal;font-variant:normal;font-weight:normal;font-stretch:normal;font-size:2.11667px;font-family:Sans;-inkscape-font-specification:'Sans, Normal';font-variant-ligatures:normal;font-variant-caps:normal;font-variant-numeric:normal;font-variant-east-asian:normal;fill:#ffffff;fill-opacity:1;stroke:#ffffff;stroke-width:0.264583;stroke-opacity:1"
       x="6.9086356"
       y="20.488674"
       id="text19-3"><tspan
         sodipodi:role="line"
         id="tspan9"
         x="6.9086356"
         y="20.488674"
         style="font-size:2.11667px;fill:#ffffff;stroke:#ffffff;stroke-opacity:1">VARMT VAND</tspan></text><text
       xml:space="preserve"
       style="font-style:normal;font-variant:normal;font-weight:normal;font-stretch:normal;font-size:2.46944px;font-family:sans-serif;-inkscape-font-specification:'sans-serif, Normal';font-variant-ligatures:normal;font-variant-caps:normal;font-variant-numeric:normal;font-variant-east-asian:normal;fill:#000000;fill-opacity:1;stroke:#060000;stroke-width:0.264583;stroke-opacity:1"
       x="14.082401"
       y="9.4749889"
       id="text19-4"><tspan
         sodipodi:role="line"
         style="font-style:normal;font-variant:normal;font-weight:normal;font-stretch:normal;font-size:2.11667px;font-family:Sans;-inkscape-font-specification:'Sans, Normal';font-variant-ligatures:normal;font-variant-caps:normal;font-variant-numeric:normal;font-variant-east-asian:normal;text-align:center;text-anchor:middle;fill:#000000;stroke:#060000;stroke-width:0.264583;stroke-opacity:1"
         x="14.082401"
         y="9.4749889"
         id="tspan1">LET SKUMMET </tspan><tspan
         sodipodi:role="line"
         style="font-style:normal;font-variant:normal;font-weight:normal;font-stretch:normal;font-size:2.11667px;font-family:Sans;-inkscape-font-specification:'Sans, Normal';font-variant-ligatures:normal;font-variant-caps:normal;font-variant-numeric:normal;font-variant-east-asian:normal;text-align:center;text-anchor:middle;fill:#000000;stroke:#060000;stroke-width:0.264583;stroke-opacity:1"
         x="14.082401"
         y="12.561789"
         id="tspan6">MÆLK</tspan></text><text
       xml:space="preserve"
       style="font-style:normal;font-variant:normal;font-weight:normal;font-stretch:normal;font-size:2.11667px;font-family:Sans;-inkscape-font-specification:'Sans, Normal';font-variant-ligatures:normal;font-variant-caps:normal;font-variant-numeric:normal;font-variant-east-asian:normal;fill:#ffffff;fill-opacity:1;stroke:#ffffff;stroke-width:0.264583;stroke-opacity:1"
       x="10.346694"
       y="24.650629"
       id="text19-3-4"><tspan
         sodipodi:role="line"
         id="tspan9-1"
         x="10.346694"
         y="24.650629"
         style="font-size:2.11667px;fill:#ffffff;fill-opacity:1;stroke:#ffffff;stroke-opacity:1">KAKAO</tspan></text><path
       style="fill:#ffffff;stroke:#ffffff;stroke-width:0.148064"
       d="M 13.822182,13.970142 V 9.7397225 L 52.66473,9.8421038 c 21.363402,0.05631 38.850632,0.1100528 38.860513,0.119429 0.0099,0.00938 0.05145,1.7886072 0.09238,3.9538452 l 0.07442,3.936798 -10.957948,0.08875 c -6.02687,0.04881 -23.54759,0.127201 -38.934931,0.174193 l -27.976983,0.08544 z"
       id="path2"
       transform="scale(0.26458333)" /><path
       style="fill:#ffffff;stroke:#ffffff;stroke-width:0.148064"
       d="M 50.822107,8.7245792 C 33.730213,8.674753 19.706432,8.5944818 19.658149,8.5461986 c -0.04828,-0.048283 0.295027,-1.591936 0.762912,-3.43034 l 0.850699,-3.3425528 32.221327,0.03729 32.221327,0.03729 1.081284,3.4001089 c 0.594706,1.8700599 1.083183,3.4500018 1.085504,3.510982 0.0023,0.06098 -1.342886,0.098571 -2.989352,0.083535 C 83.245384,8.8274748 67.913999,8.7744056 50.822107,8.7245792 Z"
       id="path4"
       transform="scale(0.26458333)" /></g></svg>
